<svg width="26" height="26" viewBox="0 0 26 26" fill="none" xmlns="http://www.w3.org/2000/svg">
<mask id="mask0_201_6138" style="mask-type:alpha" maskUnits="userSpaceOnUse" x="0" y="0" width="26" height="26">
<rect width="26" height="26" fill="#D9D9D9"/>
</mask>
<g mask="url(#mask0_201_6138)">
<path d="M6.52712 18.7418C7.44796 18.0557 8.45004 17.5141 9.53337 17.1168C10.6167 16.7196 11.7723 16.521 13 16.521C14.2278 16.521 15.3834 16.7196 16.4667 17.1168C17.55 17.5141 18.5521 18.0557 19.473 18.7418C20.141 18.0016 20.6737 17.1439 21.0709 16.1689C21.4681 15.1939 21.6667 14.1377 21.6667 13.0002C21.6667 10.5988 20.8228 8.5538 19.135 6.86525C17.4464 5.17741 15.4014 4.3335 13 4.3335C10.5987 4.3335 8.55404 5.17741 6.86621 6.86525C5.17765 8.5538 4.33337 10.5988 4.33337 13.0002C4.33337 14.1377 4.53199 15.1939 4.92921 16.1689C5.32643 17.1439 5.85907 18.0016 6.52712 18.7418ZM13 13.8127C12.007 13.8127 11.1721 13.4739 10.4954 12.7965C9.81793 12.1198 9.47921 11.2849 9.47921 10.2918C9.47921 9.29877 9.81793 8.46389 10.4954 7.78716C11.1721 7.10972 12.007 6.771 13 6.771C13.9931 6.771 14.828 7.10972 15.5047 7.78716C16.1822 8.46389 16.5209 9.29877 16.5209 10.2918C16.5209 11.2849 16.1822 12.1198 15.5047 12.7965C14.828 13.4739 13.9931 13.8127 13 13.8127ZM13 23.2918C11.5737 23.2918 10.2332 23.021 8.97871 22.4793C7.72349 21.9377 6.63546 21.2064 5.71462 20.2856C4.79379 19.3647 4.06254 18.2767 3.52087 17.0215C2.97921 15.767 2.70837 14.4266 2.70837 13.0002C2.70837 11.5738 2.97921 10.233 3.52087 8.97775C4.06254 7.72325 4.79379 6.63558 5.71462 5.71475C6.63546 4.79391 7.72349 4.06266 8.97871 3.521C10.2332 2.97933 11.5737 2.7085 13 2.7085C14.4264 2.7085 15.7672 2.97933 17.0225 3.521C18.277 4.06266 19.3646 4.79391 20.2855 5.71475C21.2063 6.63558 21.9375 7.72325 22.4792 8.97775C23.0209 10.233 23.2917 11.5738 23.2917 13.0002C23.2917 14.4266 23.0209 15.767 22.4792 17.0215C21.9375 18.2767 21.2063 19.3647 20.2855 20.2856C19.3646 21.2064 18.277 21.9377 17.0225 22.4793C15.7672 23.021 14.4264 23.2918 13 23.2918ZM13 21.6668C13.975 21.6668 14.9186 21.5087 15.8308 21.1923C16.7422 20.8767 17.55 20.4391 18.2542 19.8793C17.55 19.3377 16.7509 18.9134 15.8568 18.6064C14.9634 18.2995 14.0112 18.146 13 18.146C11.9889 18.146 11.0367 18.2951 10.1433 18.5934C9.24918 18.891 8.45004 19.3196 7.74587 19.8793C8.45004 20.4391 9.25785 20.8767 10.1693 21.1923C11.0815 21.5087 12.025 21.6668 13 21.6668ZM13 12.1877C13.5417 12.1877 13.9931 12.0071 14.3542 11.646C14.7153 11.2849 14.8959 10.8335 14.8959 10.2918C14.8959 9.75016 14.7153 9.29877 14.3542 8.93766C13.9931 8.57655 13.5417 8.396 13 8.396C12.4584 8.396 12.007 8.57655 11.6459 8.93766C11.2848 9.29877 11.1042 9.75016 11.1042 10.2918C11.1042 10.8335 11.2848 11.2849 11.6459 11.646C12.007 12.0071 12.4584 12.1877 13 12.1877Z" fill="#212F54"/>
</g>
</svg>
