<svg width="26" height="26" viewBox="0 0 26 26" fill="none" xmlns="http://www.w3.org/2000/svg">
<mask id="mask0_201_4035" style="mask-type:alpha" maskUnits="userSpaceOnUse" x="0" y="0" width="26" height="26">
<rect width="26" height="26" fill="#D9D9D9"/>
</mask>
<g mask="url(#mask0_201_4035)">
<path d="M6.52712 18.7416C7.44796 18.0555 8.45004 17.5139 9.53337 17.1166C10.6167 16.7194 11.7723 16.5208 13 16.5208C14.2278 16.5208 15.3834 16.7194 16.4667 17.1166C17.55 17.5139 18.5521 18.0555 19.473 18.7416C20.141 18.0014 20.6737 17.1437 21.0709 16.1687C21.4681 15.1937 21.6667 14.1375 21.6667 13C21.6667 10.5986 20.8228 8.55362 19.135 6.86506C17.4464 5.17723 15.4014 4.33331 13 4.33331C10.5987 4.33331 8.55404 5.17723 6.86621 6.86506C5.17765 8.55362 4.33337 10.5986 4.33337 13C4.33337 14.1375 4.53199 15.1937 4.92921 16.1687C5.32643 17.1437 5.85907 18.0014 6.52712 18.7416ZM13 13.8125C12.007 13.8125 11.1721 13.4738 10.4954 12.7963C9.81793 12.1196 9.47921 11.2847 9.47921 10.2916C9.47921 9.29859 9.81793 8.4637 10.4954 7.78698C11.1721 7.10954 12.007 6.77081 13 6.77081C13.9931 6.77081 14.828 7.10954 15.5047 7.78698C16.1822 8.4637 16.5209 9.29859 16.5209 10.2916C16.5209 11.2847 16.1822 12.1196 15.5047 12.7963C14.828 13.4738 13.9931 13.8125 13 13.8125ZM13 23.2916C11.5737 23.2916 10.2332 23.0208 8.97871 22.4791C7.72349 21.9375 6.63546 21.2062 5.71462 20.2854C4.79379 19.3646 4.06254 18.2765 3.52087 17.0213C2.97921 15.7668 2.70837 14.4264 2.70837 13C2.70837 11.5736 2.97921 10.2328 3.52087 8.97756C4.06254 7.72306 4.79379 6.6354 5.71462 5.71456C6.63546 4.79373 7.72349 4.06248 8.97871 3.52081C10.2332 2.97915 11.5737 2.70831 13 2.70831C14.4264 2.70831 15.7672 2.97915 17.0225 3.52081C18.277 4.06248 19.3646 4.79373 20.2855 5.71456C21.2063 6.6354 21.9375 7.72306 22.4792 8.97756C23.0209 10.2328 23.2917 11.5736 23.2917 13C23.2917 14.4264 23.0209 15.7668 22.4792 17.0213C21.9375 18.2765 21.2063 19.3646 20.2855 20.2854C19.3646 21.2062 18.277 21.9375 17.0225 22.4791C15.7672 23.0208 14.4264 23.2916 13 23.2916ZM13 21.6666C13.975 21.6666 14.9186 21.5085 15.8308 21.1921C16.7422 20.8765 17.55 20.4389 18.2542 19.8791C17.55 19.3375 16.7509 18.9132 15.8568 18.6062C14.9634 18.2993 14.0112 18.1458 13 18.1458C11.9889 18.1458 11.0367 18.295 10.1433 18.5932C9.24918 18.8908 8.45004 19.3194 7.74587 19.8791C8.45004 20.4389 9.25785 20.8765 10.1693 21.1921C11.0815 21.5085 12.025 21.6666 13 21.6666ZM13 12.1875C13.5417 12.1875 13.9931 12.0069 14.3542 11.6458C14.7153 11.2847 14.8959 10.8333 14.8959 10.2916C14.8959 9.74998 14.7153 9.29859 14.3542 8.93748C13.9931 8.57637 13.5417 8.39581 13 8.39581C12.4584 8.39581 12.007 8.57637 11.6459 8.93748C11.2848 9.29859 11.1042 9.74998 11.1042 10.2916C11.1042 10.8333 11.2848 11.2847 11.6459 11.6458C12.007 12.0069 12.4584 12.1875 13 12.1875Z" fill="white"/>
</g>
</svg>
