<svg width="30" height="30" viewBox="0 0 30 30" fill="none" xmlns="http://www.w3.org/2000/svg">
<g clip-path="url(#clip0_98_18831)">
<rect width="30" height="30" rx="15" transform="matrix(-1 0 0 1 30 0)" fill="white"/>
<path fill-rule="evenodd" clip-rule="evenodd" d="M13.5251 7.31819L6.33109 14.2318C5.88963 14.6561 5.88963 15.3439 6.33109 15.7682L13.5251 22.6818C13.9666 23.1061 14.6824 23.1061 15.1238 22.6818C15.5653 22.2576 15.5653 21.5697 15.1238 21.1454L9.85955 16.0864L30.8696 16.0864C31.4939 16.0864 32 15.6 32 15C32 14.4 31.4939 13.9136 30.8696 13.9136L9.85955 13.9136L15.1238 8.85455C15.5653 8.4303 15.5653 7.74245 15.1238 7.31819C14.6824 6.89394 13.9666 6.89394 13.5251 7.31819Z" fill="#E67523"/>
</g>
<defs>
<clipPath id="clip0_98_18831">
<rect width="30" height="30" rx="15" transform="matrix(-1 0 0 1 30 0)" fill="white"/>
</clipPath>
</defs>
</svg>
