<svg width="30" height="30" viewBox="0 0 30 30" fill="none" xmlns="http://www.w3.org/2000/svg">
<g clip-path="url(#clip0_58_5653)">
<rect x="30" width="30" height="30" rx="15" transform="rotate(90 30 0)" fill="#E67523"/>
<g clip-path="url(#clip1_58_5653)">
<path d="M9 -2.5V19C9 20.5913 9.63214 22.1174 10.7574 23.2426C11.8826 24.3679 13.4087 25 15 25C16.5913 25 18.1174 24.3679 19.2426 23.2426C20.3679 22.1174 21 20.5913 21 19V9C21 7.93913 20.5786 6.92172 19.8284 6.17157C19.0783 5.42143 18.0609 5 17 5C15.9391 5 14.9217 5.42143 14.1716 6.17157C13.4214 6.92172 13 7.93913 13 9V18.182C13 18.4446 13.0517 18.7047 13.1522 18.9474C13.2528 19.19 13.4001 19.4105 13.5858 19.5962C13.7715 19.7819 13.992 19.9292 14.2346 20.0298C14.4773 20.1303 14.7374 20.182 15 20.182C15.5304 20.182 16.0391 19.9713 16.4142 19.5962C16.7893 19.2211 17 18.7124 17 18.182V11" stroke="white" stroke-width="1.4" stroke-linecap="round" stroke-linejoin="round"/>
</g>
</g>
<defs>
<clipPath id="clip0_58_5653">
<rect x="30" width="30" height="30" rx="15" transform="rotate(90 30 0)" fill="white"/>
</clipPath>
<clipPath id="clip1_58_5653">
<rect width="30" height="30" fill="white"/>
</clipPath>
</defs>
</svg>
