<svg width="240" height="240" viewBox="0 0 240 240" fill="none" xmlns="http://www.w3.org/2000/svg">
<path opacity="0.04" d="M1.00134e-05 120C7.11649e-06 186.274 53.7258 240 120 240C186.274 240 240 186.274 240 120C240 55.7752 189.545 3.33465 126.111 0.152894C124.087 0.0513669 122.049 -5.15579e-06 120 -5.24537e-06C118.025 -5.33168e-06 116.062 0.0476853 114.111 0.141978L114.035 0.14945L114.035 10.5L114.035 15L114.035 33.2609L114.035 161.624L84.6291 132.468C82.1631 130.023 78.165 130.023 75.699 132.468C73.233 134.913 73.233 138.877 75.699 141.322L115.884 181.166C118.35 183.611 122.349 183.611 124.815 181.166L165 141.322C167.466 138.877 167.466 134.913 165 132.468C162.534 130.023 158.536 130.023 156.07 132.468L126.664 161.624L126.664 33.2609L126.664 12.2022C183.207 15.6442 228 62.5911 228 120C228 176.709 184.292 223.21 128.727 227.653C125.848 227.883 122.938 228 120 228C117.062 228 114.152 227.883 111.273 227.653C55.7075 223.21 12 176.709 12 120C12 68.6019 47.9043 25.5897 96 14.6762L96 2.40043C41.2263 13.5189 1.25511e-05 61.945 1.00134e-05 120Z" fill="#6D6D6D"/>
</svg>
