<svg width="234" height="60" viewBox="0 0 234 60" fill="none" xmlns="http://www.w3.org/2000/svg">
<path fill-rule="evenodd" clip-rule="evenodd" d="M34.4118 18.0882V20.7353V32.5048L49.1545 17.7621H52.898L41.5248 29.1353L47.3447 36.3436L53.1645 43.552L55.267 46.1803C49.9331 54.4924 40.6097 60 30 60C13.4315 60 0 46.5685 0 30C0 27.5687 0.289231 25.2049 0.835164 22.9412H4.10495C3.49328 25.1904 3.16682 27.5571 3.16682 30C3.16682 44.8196 15.1804 56.8332 30 56.8332C38.8801 56.8332 46.7527 52.5196 51.6368 45.8735L39.6424 31.0177L34.4118 36.2484V42.7941H31.7647V20.7353H24.2647L24.2647 42.7941H21.6176L21.6176 20.7353H18.0882L18.0882 42.7941H15.4412L15.4412 20.7353H4.8092H3.08824H1.45791C5.3615 8.70088 16.6647 0 30 0C46.5685 0 60 13.4315 60 30C60 34.9681 58.7924 39.6541 56.6547 43.7805L54.4689 41.0294C55.9878 37.665 56.8332 33.9312 56.8332 30C56.8332 15.1804 44.8196 3.16682 30 3.16682C19.4587 3.16682 10.3372 9.24522 5.94904 18.0882H15.4412H18.0882H21.6176H24.2647H31.7647H34.4118Z" fill="white"/>
<path d="M79.7457 10.501V18.9696H77.7042V10.501H79.7457ZM82.2933 10.501V12.0773H75.2148V10.501H82.2933Z" fill="white"/>
<path d="M87.111 12.2808L85.0462 18.9696H82.8535L85.9652 10.501H87.3553L87.111 12.2808ZM88.821 18.9696L86.7504 12.2808L86.4829 10.501H87.8904L91.0196 18.9696H88.821ZM88.7396 15.8113V17.3875H84.3948V15.8113H88.7396Z" fill="white"/>
<path d="M93.726 10.501H95.3895L97.2798 16.393L99.1701 10.501H100.834L97.9544 18.9696H96.6051L93.726 10.501ZM92.714 10.501H94.4356L94.7555 16.992V18.9696H92.714V10.501ZM100.124 10.501H101.851V18.9696H99.804V16.992L100.124 10.501Z" fill="white"/>
<path d="M109.95 10.501V12.0773H106.268V18.9696H104.232V10.501H109.95ZM105.512 13.415H107.332C108.018 13.415 108.616 13.5294 109.124 13.7582C109.632 13.9869 110.023 14.3068 110.298 14.7179C110.578 15.1289 110.717 15.6097 110.717 16.1603C110.717 16.5752 110.638 16.9552 110.479 17.3003C110.32 17.6415 110.091 17.9381 109.792 18.1902C109.498 18.4383 109.143 18.6303 108.728 18.766C108.313 18.9017 107.848 18.9696 107.332 18.9696H104.238V10.501H106.285V17.3992H107.332C107.623 17.3992 107.867 17.3429 108.065 17.2305C108.267 17.118 108.42 16.9688 108.525 16.7826C108.629 16.5926 108.682 16.3813 108.682 16.1487C108.682 15.9238 108.629 15.7241 108.525 15.5496C108.42 15.3751 108.267 15.2374 108.065 15.1366C107.867 15.0358 107.623 14.9854 107.332 14.9854H105.512V13.415Z" fill="white"/>
<path d="M119.915 14.5666V14.9098C119.915 15.5573 119.824 16.139 119.641 16.6547C119.463 17.1665 119.209 17.6047 118.879 17.9692C118.55 18.3298 118.16 18.607 117.71 18.8009C117.261 18.9909 116.764 19.0859 116.221 19.0859C115.675 19.0859 115.174 18.9909 114.721 18.8009C114.271 18.607 113.879 18.3298 113.546 17.9692C113.216 17.6047 112.96 17.1665 112.778 16.6547C112.6 16.139 112.511 15.5573 112.511 14.9098V14.5666C112.511 13.9191 112.6 13.3375 112.778 12.8217C112.96 12.306 113.214 11.8679 113.54 11.5073C113.87 11.1428 114.259 10.8655 114.709 10.6755C115.163 10.4817 115.663 10.3847 116.21 10.3847C116.753 10.3847 117.249 10.4817 117.699 10.6755C118.152 10.8655 118.544 11.1428 118.874 11.5073C119.203 11.8679 119.459 12.306 119.641 12.8217C119.824 13.3375 119.915 13.9191 119.915 14.5666ZM117.844 14.9098V14.555C117.844 14.1362 117.807 13.7679 117.734 13.4499C117.664 13.1281 117.559 12.8586 117.419 12.6414C117.28 12.4243 117.107 12.2614 116.902 12.1529C116.7 12.0404 116.469 11.9842 116.21 11.9842C115.938 11.9842 115.702 12.0404 115.5 12.1529C115.298 12.2614 115.13 12.4243 114.994 12.6414C114.858 12.8586 114.756 13.1281 114.686 13.4499C114.62 13.7679 114.587 14.1362 114.587 14.555V14.9098C114.587 15.3247 114.62 15.6931 114.686 16.0149C114.756 16.3328 114.858 16.6023 114.994 16.8234C115.134 17.0444 115.304 17.2111 115.506 17.3236C115.711 17.436 115.95 17.4922 116.221 17.4922C116.481 17.4922 116.712 17.436 116.913 17.3236C117.115 17.2111 117.284 17.0444 117.419 16.8234C117.559 16.6023 117.664 16.3328 117.734 16.0149C117.807 15.6931 117.844 15.3247 117.844 14.9098Z" fill="white"/>
<path d="M125.5 15.3693H123.319L123.307 14.0315H125.076C125.394 14.0315 125.648 13.9966 125.838 13.9268C126.028 13.8532 126.165 13.7465 126.25 13.6069C126.34 13.4674 126.384 13.2929 126.384 13.0835C126.384 12.8431 126.34 12.6492 126.25 12.5019C126.161 12.3545 126.02 12.2479 125.826 12.182C125.636 12.1122 125.39 12.0773 125.087 12.0773H124.087V18.9696H122.045V10.501H125.087C125.611 10.501 126.078 10.5495 126.489 10.6465C126.9 10.7395 127.249 10.883 127.536 11.0769C127.827 11.2707 128.048 11.515 128.199 11.8097C128.35 12.1005 128.426 12.4437 128.426 12.8392C128.426 13.1843 128.352 13.5081 128.205 13.8105C128.057 14.113 127.811 14.3592 127.466 14.5492C127.125 14.7353 126.658 14.8322 126.064 14.84L125.5 15.3693ZM125.419 18.9696H122.825L123.523 17.3992H125.419C125.698 17.3992 125.921 17.3565 126.088 17.2712C126.258 17.182 126.38 17.0657 126.454 16.9222C126.532 16.7749 126.57 16.612 126.57 16.4337C126.57 16.2165 126.534 16.0285 126.46 15.8695C126.39 15.7105 126.278 15.5884 126.123 15.5031C125.967 15.4139 125.76 15.3693 125.5 15.3693H123.784L123.796 14.0315H125.849L126.326 14.5666C126.892 14.5434 127.34 14.6229 127.67 14.8051C128.003 14.9873 128.242 15.2278 128.385 15.5263C128.529 15.8249 128.6 16.137 128.6 16.4627C128.6 17.0172 128.48 17.4806 128.24 17.8528C128.003 18.2251 127.648 18.5043 127.175 18.6904C126.702 18.8765 126.117 18.9696 125.419 18.9696Z" fill="white"/>
<path d="M135.622 16.1021H137.658C137.631 16.6915 137.472 17.2111 137.181 17.6609C136.89 18.1107 136.487 18.4616 135.971 18.7137C135.46 18.9618 134.855 19.0859 134.157 19.0859C133.591 19.0859 133.085 18.9909 132.639 18.8009C132.197 18.6109 131.82 18.3375 131.51 17.9808C131.204 17.6241 130.969 17.1917 130.806 16.6838C130.648 16.1758 130.568 15.6039 130.568 14.968V14.5085C130.568 13.8726 130.651 13.3006 130.818 12.7927C130.989 12.2808 131.229 11.8466 131.539 11.4898C131.853 11.1292 132.23 10.8539 132.668 10.6639C133.106 10.4739 133.592 10.3789 134.128 10.3789C134.864 10.3789 135.487 10.5107 135.995 10.7744C136.503 11.0381 136.896 11.4006 137.175 11.8621C137.455 12.3196 137.619 12.8411 137.67 13.4266H135.634C135.626 13.1087 135.572 12.8431 135.471 12.6298C135.37 12.4127 135.211 12.2498 134.994 12.1412C134.777 12.0327 134.488 11.9784 134.128 11.9784C133.876 11.9784 133.656 12.0249 133.47 12.118C133.284 12.211 133.129 12.3584 133.005 12.56C132.881 12.7616 132.788 13.0234 132.726 13.3452C132.668 13.6632 132.639 14.047 132.639 14.4968V14.968C132.639 15.4178 132.666 15.8016 132.72 16.1196C132.774 16.4375 132.862 16.6973 132.982 16.899C133.102 17.1006 133.257 17.2499 133.447 17.3468C133.641 17.4399 133.877 17.4864 134.157 17.4864C134.467 17.4864 134.729 17.4379 134.942 17.341C135.155 17.2402 135.32 17.089 135.436 16.8873C135.553 16.6818 135.615 16.4201 135.622 16.1021Z" fill="white"/>
<path d="M141.72 10.501V18.9696H139.684V10.501H141.72ZM146.605 10.501L143.563 15.6194H141.365L141.121 13.7756H142.511L144.139 10.501H146.605ZM144.488 18.9696L142.505 15.2646L143.988 13.8978L146.896 18.9696H144.488Z" fill="white"/>
<path d="M152.069 12.2808L150.004 18.9696H147.811L150.923 10.501H152.313L152.069 12.2808ZM153.779 18.9696L151.708 12.2808L151.441 10.501H152.848L155.977 18.9696H153.779ZM153.697 15.8113V17.3875H149.353V15.8113H153.697Z" fill="white"/>
<path d="M162.08 15.9974H159.818L159.213 15.7473C158.523 15.5302 157.997 15.2084 157.637 14.7818C157.276 14.3514 157.096 13.8028 157.096 13.1358C157.096 12.5542 157.226 12.0695 157.486 11.6818C157.745 11.2901 158.114 10.9954 158.591 10.7977C159.068 10.5999 159.634 10.501 160.289 10.501H163.36V18.9696H161.313V12.0773H160.289C159.882 12.0773 159.587 12.1839 159.405 12.3972C159.223 12.6065 159.132 12.9129 159.132 13.3161C159.132 13.6263 159.174 13.8706 159.26 14.049C159.349 14.2274 159.479 14.3553 159.649 14.4329C159.82 14.5065 160.033 14.5434 160.289 14.5434H162.069L162.08 15.9974ZM160.51 15.2355L158.713 18.9696H156.491L158.265 15.2355H160.51Z" fill="white"/>
<path d="M77.6697 43.1495V51.618H75.634V43.1495H77.6697ZM82.5554 43.1495L79.5134 48.2679H77.3149L77.0706 46.4241H78.4607L80.0893 43.1495H82.5554ZM80.4382 51.618L78.4549 47.9131L79.938 46.5462L82.8462 51.618H80.4382Z" fill="white"/>
<path d="M91.4096 47.2151V47.5583C91.4096 48.2058 91.3185 48.7875 91.1363 49.3032C90.9579 49.815 90.7039 50.2532 90.3743 50.6176C90.0447 50.9783 89.655 51.2555 89.2052 51.4494C88.7554 51.6394 88.2591 51.7344 87.7163 51.7344C87.1695 51.7344 86.6693 51.6394 86.2157 51.4494C85.7659 51.2555 85.3742 50.9783 85.0408 50.6176C84.7112 50.2532 84.4553 49.815 84.273 49.3032C84.0947 48.7875 84.0055 48.2058 84.0055 47.5583V47.2151C84.0055 46.5676 84.0947 45.9859 84.273 45.4702C84.4553 44.9545 84.7092 44.5164 85.035 44.1557C85.3646 43.7913 85.7542 43.514 86.204 43.324C86.6577 43.1301 87.1579 43.0332 87.7046 43.0332C88.2475 43.0332 88.7438 43.1301 89.1936 43.324C89.6473 43.514 90.0389 43.7913 90.3685 44.1557C90.6981 44.5164 90.954 44.9545 91.1363 45.4702C91.3185 45.9859 91.4096 46.5676 91.4096 47.2151ZM89.339 47.5583V47.2035C89.339 46.7847 89.3022 46.4163 89.2285 46.0984C89.1587 45.7766 89.054 45.5071 88.9144 45.2899C88.7748 45.0728 88.6023 44.9099 88.3968 44.8014C88.1951 44.6889 87.9644 44.6327 87.7046 44.6327C87.4332 44.6327 87.1967 44.6889 86.9951 44.8014C86.7934 44.9099 86.6247 45.0728 86.489 45.2899C86.3533 45.5071 86.2506 45.7766 86.1808 46.0984C86.1149 46.4163 86.0819 46.7847 86.0819 47.2035V47.5583C86.0819 47.9732 86.1149 48.3415 86.1808 48.6634C86.2506 48.9813 86.3533 49.2508 86.489 49.4718C86.6286 49.6929 86.7992 49.8596 87.0009 49.972C87.2064 50.0845 87.4448 50.1407 87.7163 50.1407C87.9761 50.1407 88.2068 50.0845 88.4084 49.972C88.61 49.8596 88.7787 49.6929 88.9144 49.4718C89.054 49.2508 89.1587 48.9813 89.2285 48.6634C89.3022 48.3415 89.339 47.9732 89.339 47.5583Z" fill="white"/>
<path d="M94.5523 43.1495H96.2157L98.106 49.0414L99.9963 43.1495H101.66L98.7807 51.618H97.4313L94.5523 43.1495ZM93.5402 43.1495H95.2619L95.5818 49.6405V51.618H93.5402V43.1495ZM100.95 43.1495H102.678V51.618H100.63V49.6405L100.95 43.1495Z" fill="white"/>
<path d="M112.166 43.1495V51.618H110.124V44.7257H107.082V51.618H105.047V43.1495H112.166Z" fill="white"/>
<path d="M118.106 44.9293L116.041 51.618H113.849L116.96 43.1495H118.35L118.106 44.9293ZM119.816 51.618L117.746 44.9293L117.478 43.1495H118.886L122.015 51.618H119.816ZM119.735 48.4598V50.036H115.39V48.4598H119.735Z" fill="white"/>
<path d="M129.415 46.5113V48.0817H125.07V46.5113H129.415ZM125.751 43.1495V51.618H123.709V43.1495H125.751ZM130.788 43.1495V51.618H128.752V43.1495H130.788Z" fill="white"/>
<path d="M135.082 48.4947L138.124 43.1495H140.165V51.618H138.124V46.2787L135.082 51.618H133.04V43.1495H135.082V48.4947Z" fill="white"/>
<path d="M146.897 48.6459H144.634L144.029 48.3958C143.339 48.1787 142.814 47.8568 142.453 47.4303C142.092 46.9999 141.912 46.4512 141.912 45.7843C141.912 45.2027 142.042 44.718 142.302 44.3302C142.561 43.9386 142.93 43.6439 143.407 43.4462C143.884 43.2484 144.45 43.1495 145.105 43.1495H148.176V51.618H146.129V44.7257H145.105C144.698 44.7257 144.403 44.8324 144.221 45.0456C144.039 45.255 143.948 45.5614 143.948 45.9646C143.948 46.2748 143.99 46.5191 144.076 46.6975C144.165 46.8758 144.295 47.0038 144.465 47.0813C144.636 47.155 144.849 47.1919 145.105 47.1919H146.885L146.897 48.6459ZM145.326 47.884L143.529 51.618H141.307L143.081 47.884H145.326Z" fill="white"/>
<path d="M79.7457 26.8253V35.2938H77.7042V26.8253H79.7457ZM82.2933 26.8253V28.4015H75.2148V26.8253H82.2933Z" fill="white"/>
<path d="M89.8216 33.7234V35.2938H85.3082V33.7234H89.8216ZM86.0352 26.8253V35.2938H83.9937V26.8253H86.0352ZM89.24 30.1871V31.7051H85.3082V30.1871H89.24ZM89.8391 26.8253V28.4015H85.3082V26.8253H89.8391Z" fill="white"/>
<path d="M98.6005 26.8253V35.2938H96.559V28.4015H93.5171V35.2938H91.4814V26.8253H98.6005Z" fill="white"/>
<path d="M106.46 26.8253V28.4015H102.087V26.8253H106.46ZM107.839 26.8253V35.2938H105.797V26.8253H107.839ZM101.947 26.8253H103.977L103.756 31.1293C103.721 31.7807 103.655 32.343 103.558 32.816C103.461 33.2852 103.331 33.6807 103.168 34.0026C103.006 34.3205 102.81 34.5745 102.581 34.7645C102.352 34.9545 102.087 35.0902 101.784 35.1716C101.486 35.2531 101.15 35.2938 100.778 35.2938H100.284V33.7234L100.505 33.7001C100.683 33.6807 100.84 33.6323 100.976 33.5547C101.111 33.4733 101.228 33.3531 101.325 33.1941C101.425 33.0351 101.509 32.8316 101.575 32.5834C101.641 32.3352 101.693 32.0347 101.732 31.6819C101.774 31.3251 101.804 30.9083 101.819 30.4314L101.947 26.8253Z" fill="white"/>
<path d="M117.112 30.8909V31.234C117.112 31.8816 117.021 32.4632 116.839 32.9789C116.66 33.4907 116.406 33.9289 116.077 34.2934C115.747 34.654 115.358 34.9312 114.908 35.1251C114.458 35.3151 113.962 35.4101 113.419 35.4101C112.872 35.4101 112.372 35.3151 111.918 35.1251C111.468 34.9312 111.077 34.654 110.743 34.2934C110.414 33.9289 110.158 33.4907 109.976 32.9789C109.797 32.4632 109.708 31.8816 109.708 31.234V30.8909C109.708 30.2433 109.797 29.6617 109.976 29.146C110.158 28.6303 110.412 28.1921 110.737 27.8315C111.067 27.467 111.457 27.1898 111.907 26.9998C112.36 26.8059 112.86 26.7089 113.407 26.7089C113.95 26.7089 114.446 26.8059 114.896 26.9998C115.35 27.1898 115.741 27.467 116.071 27.8315C116.401 28.1921 116.657 28.6303 116.839 29.146C117.021 29.6617 117.112 30.2433 117.112 30.8909ZM115.042 31.234V30.8792C115.042 30.4604 115.005 30.0921 114.931 29.7741C114.861 29.4523 114.757 29.1828 114.617 28.9657C114.477 28.7485 114.305 28.5857 114.099 28.4771C113.898 28.3646 113.667 28.3084 113.407 28.3084C113.136 28.3084 112.899 28.3646 112.698 28.4771C112.496 28.5857 112.327 28.7485 112.192 28.9657C112.056 29.1828 111.953 29.4523 111.883 29.7741C111.817 30.0921 111.784 30.4604 111.784 30.8792V31.234C111.784 31.6489 111.817 32.0173 111.883 32.3391C111.953 32.6571 112.056 32.9266 112.192 33.1476C112.331 33.3686 112.502 33.5353 112.703 33.6478C112.909 33.7602 113.147 33.8164 113.419 33.8164C113.679 33.8164 113.909 33.7602 114.111 33.6478C114.313 33.5353 114.481 33.3686 114.617 33.1476C114.757 32.9266 114.861 32.6571 114.931 32.3391C115.005 32.0173 115.042 31.6489 115.042 31.234Z" fill="white"/>
<path d="M124.815 30.2685V31.8447H121.157V30.2685H124.815ZM118.458 32.4322H120.494C120.505 32.7501 120.567 33.0138 120.68 33.2232C120.796 33.4326 120.961 33.5896 121.174 33.6943C121.391 33.799 121.655 33.8513 121.965 33.8513C122.244 33.8513 122.481 33.8029 122.675 33.7059C122.872 33.6051 123.033 33.452 123.157 33.2465C123.281 33.0409 123.373 32.7773 123.431 32.4554C123.489 32.1336 123.518 31.7478 123.518 31.298V30.8327C123.518 30.4721 123.497 30.1522 123.454 29.873C123.415 29.5938 123.353 29.3554 123.268 29.1576C123.186 28.956 123.084 28.7912 122.96 28.6632C122.839 28.5353 122.698 28.4403 122.535 28.3782C122.372 28.3162 122.19 28.2852 121.988 28.2852C121.628 28.2852 121.339 28.3414 121.122 28.4538C120.905 28.5663 120.746 28.733 120.645 28.954C120.548 29.1712 120.494 29.4387 120.482 29.7567H118.446C118.5 29.1712 118.667 28.6496 118.946 28.1921C119.226 27.7307 119.617 27.3681 120.121 27.1044C120.629 26.8408 121.252 26.7089 121.988 26.7089C122.527 26.7089 123.016 26.8039 123.454 26.9939C123.892 27.1839 124.266 27.4592 124.577 27.8199C124.891 28.1805 125.131 28.6147 125.298 29.1227C125.464 29.6307 125.548 30.2045 125.548 30.8443V31.298C125.548 31.9339 125.466 32.5058 125.304 33.0138C125.145 33.5218 124.91 33.9541 124.6 34.3108C124.293 34.6676 123.919 34.9409 123.477 35.1309C123.035 35.3209 122.531 35.4159 121.965 35.4159C121.271 35.4159 120.666 35.2918 120.15 35.0437C119.639 34.7916 119.235 34.4407 118.941 33.9909C118.65 33.5411 118.489 33.0216 118.458 32.4322Z" fill="white"/>
<path d="M133.129 30.1871V31.7575H128.784V30.1871H133.129ZM129.464 26.8253V35.2938H127.423V26.8253H129.464ZM134.501 26.8253V35.2938H132.466V26.8253H134.501Z" fill="white"/>
<path d="M142.46 33.7234V35.2938H137.947V33.7234H142.46ZM138.674 26.8253V35.2938H136.632V26.8253H138.674ZM141.878 30.1871V31.7051H137.947V30.1871H141.878ZM142.477 26.8253V28.4015H137.947V26.8253H142.477Z" fill="white"/>
<path d="M147.511 32.4205H145.405V30.8443H147.511C147.798 30.8443 148.03 30.7959 148.209 30.6989C148.387 30.602 148.517 30.4682 148.598 30.2976C148.684 30.1231 148.726 29.9273 148.726 29.7101C148.726 29.4775 148.684 29.2623 148.598 29.0645C148.517 28.8668 148.387 28.7078 148.209 28.5876C148.03 28.4635 147.798 28.4015 147.511 28.4015H146.173V35.2938H144.131V26.8253H147.511C148.189 26.8253 148.773 26.9493 149.261 27.1975C149.754 27.4457 150.132 27.7869 150.396 28.2212C150.659 28.6516 150.791 29.144 150.791 29.6985C150.791 30.2452 150.659 30.7222 150.396 31.1293C150.132 31.5365 149.754 31.8544 149.261 32.0832C148.773 32.3081 148.189 32.4205 147.511 32.4205Z" fill="white"/>
<path d="M158.43 26.8253V28.4015H154.748V35.2938H152.713V26.8253H158.43Z" fill="white"/>
<path d="M166.028 33.7234V35.2938H161.515V33.7234H166.028ZM162.242 26.8253V35.2938H160.2V26.8253H162.242ZM165.446 30.1871V31.7051H161.515V30.1871H165.446ZM166.046 26.8253V28.4015H161.515V26.8253H166.046Z" fill="white"/>
<path d="M171.916 26.8253V35.2938H169.875V26.8253H171.916ZM174.464 26.8253V28.4015H167.385V26.8253H174.464Z" fill="white"/>
<path d="M178.089 32.1704L181.131 26.8253H183.173V35.2938H181.131V29.9544L178.089 35.2938H176.048V26.8253H178.089V32.1704Z" fill="white"/>
<path d="M185.228 26.8253H187.27V29.4019C187.27 29.7431 187.324 30.0087 187.433 30.1987C187.545 30.3887 187.712 30.5225 187.933 30.6C188.154 30.6776 188.429 30.7164 188.759 30.7164C188.844 30.7164 188.966 30.7125 189.125 30.7047C189.288 30.6931 189.46 30.6776 189.643 30.6582C189.825 30.6388 189.996 30.6175 190.155 30.5942C190.314 30.5671 190.432 30.5361 190.509 30.5012V32.0716C190.428 32.1026 190.304 32.1317 190.137 32.1588C189.97 32.1859 189.794 32.2092 189.608 32.2286C189.422 32.248 189.249 32.2635 189.09 32.2751C188.935 32.2829 188.825 32.2868 188.759 32.2868C188.049 32.2868 187.429 32.184 186.897 31.9785C186.37 31.773 185.959 31.457 185.664 31.0304C185.374 30.6039 185.228 30.0611 185.228 29.4019V26.8253ZM190.108 26.8253H192.15V35.2938H190.108V26.8253Z" fill="white"/>
<path d="M200.085 33.7234V35.2938H195.572V33.7234H200.085ZM196.299 26.8253V35.2938H194.257V26.8253H196.299ZM199.503 30.1871V31.7051H195.572V30.1871H199.503ZM200.102 26.8253V28.4015H195.572V26.8253H200.102Z" fill="white"/>
<path d="M206.572 32.4264H208.608C208.581 33.0157 208.422 33.5353 208.131 33.9851C207.84 34.4349 207.437 34.7858 206.921 35.0379C206.409 35.286 205.805 35.4101 205.107 35.4101C204.54 35.4101 204.034 35.3151 203.589 35.1251C203.146 34.9351 202.77 34.6618 202.46 34.305C202.154 33.9483 201.919 33.5159 201.756 33.008C201.597 32.5 201.518 31.9281 201.518 31.2922V30.8327C201.518 30.1968 201.601 29.6248 201.768 29.1169C201.939 28.6051 202.179 28.1708 202.489 27.814C202.803 27.4534 203.179 27.1781 203.618 26.9881C204.056 26.7981 204.542 26.7031 205.078 26.7031C205.814 26.7031 206.437 26.835 206.945 27.0986C207.452 27.3623 207.846 27.7249 208.125 28.1863C208.404 28.6438 208.569 29.1654 208.62 29.7509H206.584C206.576 29.4329 206.522 29.1673 206.421 28.954C206.32 28.7369 206.161 28.574 205.944 28.4655C205.727 28.3569 205.438 28.3026 205.078 28.3026C204.825 28.3026 204.606 28.3491 204.42 28.4422C204.234 28.5353 204.079 28.6826 203.955 28.8842C203.831 29.0859 203.738 29.3476 203.676 29.6694C203.618 29.9874 203.589 30.3713 203.589 30.8211V31.2922C203.589 31.742 203.616 32.1258 203.67 32.4438C203.724 32.7618 203.811 33.0216 203.932 33.2232C204.052 33.4248 204.207 33.5741 204.397 33.671C204.591 33.7641 204.827 33.8106 205.107 33.8106C205.417 33.8106 205.679 33.7622 205.892 33.6652C206.105 33.5644 206.27 33.4132 206.386 33.2116C206.503 33.006 206.565 32.7443 206.572 32.4264Z" fill="white"/>
<path d="M212.431 26.8253V35.2938H210.396V26.8253H212.431ZM217.317 26.8253L214.275 31.9436H212.077L211.832 30.0998H213.222L214.851 26.8253H217.317ZM215.2 35.2938L213.217 31.5888L214.7 30.222L217.608 35.2938H215.2Z" fill="white"/>
<path d="M222.542 28.6051L220.477 35.2938H218.285L221.396 26.8253H222.786L222.542 28.6051ZM224.252 35.2938L222.182 28.6051L221.914 26.8253H223.322L226.451 35.2938H224.252ZM224.171 32.1355V33.7118H219.826V32.1355H224.171Z" fill="white"/>
<path d="M232.316 32.3217H230.053L229.448 32.0716C228.758 31.8544 228.233 31.5326 227.872 31.1061C227.511 30.6757 227.331 30.127 227.331 29.46C227.331 28.8784 227.461 28.3937 227.721 28.006C227.981 27.6143 228.349 27.3197 228.826 27.1219C229.303 26.9241 229.869 26.8253 230.524 26.8253H233.595V35.2938H231.548V28.4015H230.524C230.117 28.4015 229.822 28.5081 229.64 28.7214C229.458 28.9308 229.367 29.2371 229.367 29.6404C229.367 29.9506 229.409 30.1948 229.495 30.3732C229.584 30.5516 229.714 30.6795 229.884 30.7571C230.055 30.8308 230.268 30.8676 230.524 30.8676H232.304L232.316 32.3217ZM230.745 31.5597L228.948 35.2938H226.726L228.5 31.5597H230.745Z" fill="white"/>
</svg>
