<svg width="234" height="60" viewBox="0 0 234 60" fill="none" xmlns="http://www.w3.org/2000/svg">
<path fill-rule="evenodd" clip-rule="evenodd" d="M34.4118 18.0882V20.7353V32.5048L49.1545 17.7621H52.898L41.5248 29.1353L47.3447 36.3436L53.1645 43.552L55.267 46.1803C49.9331 54.4924 40.6097 60 30 60C13.4315 60 0 46.5685 0 30C0 27.5687 0.289231 25.2049 0.835164 22.9412H4.10495C3.49328 25.1904 3.16682 27.5571 3.16682 30C3.16682 44.8196 15.1804 56.8332 30 56.8332C38.8801 56.8332 46.7527 52.5196 51.6368 45.8735L39.6424 31.0177L34.4118 36.2484V42.7941H31.7647V20.7353H24.2647L24.2647 42.7941H21.6176L21.6176 20.7353H18.0882L18.0882 42.7941H15.4412L15.4412 20.7353H4.8092H3.08824H1.45791C5.3615 8.70088 16.6647 0 30 0C46.5685 0 60 13.4315 60 30C60 34.9681 58.7924 39.6541 56.6547 43.7805L54.4689 41.0294C55.9878 37.665 56.8332 33.9312 56.8332 30C56.8332 15.1804 44.8196 3.16682 30 3.16682C19.4587 3.16682 10.3372 9.24522 5.94904 18.0882H15.4412H18.0882H21.6176H24.2647H31.7647H34.4118Z" fill="#E67523"/>
<path d="M79.7457 10.502V18.9705H77.7042V10.502H79.7457ZM82.2933 10.502V12.0782H75.2148V10.502H82.2933Z" fill="#212F54"/>
<path d="M87.111 12.2818L85.0462 18.9705H82.8535L85.9652 10.502H87.3553L87.111 12.2818ZM88.821 18.9705L86.7504 12.2818L86.4829 10.502H87.8904L91.0196 18.9705H88.821ZM88.7396 15.8123V17.3885H84.3948V15.8123H88.7396Z" fill="#212F54"/>
<path d="M93.726 10.502H95.3895L97.2798 16.3939L99.1701 10.502H100.834L97.9544 18.9705H96.6051L93.726 10.502ZM92.714 10.502H94.4356L94.7555 16.993V18.9705H92.714V10.502ZM100.124 10.502H101.851V18.9705H99.804V16.993L100.124 10.502Z" fill="#212F54"/>
<path d="M109.95 10.502V12.0782H106.268V18.9705H104.232V10.502H109.95ZM105.512 13.416H107.332C108.018 13.416 108.616 13.5304 109.124 13.7591C109.632 13.9879 110.023 14.3078 110.298 14.7188C110.578 15.1299 110.717 15.6107 110.717 16.1613C110.717 16.5762 110.638 16.9562 110.479 17.3013C110.32 17.6425 110.091 17.9391 109.792 18.1912C109.498 18.4393 109.143 18.6313 108.728 18.767C108.313 18.9027 107.848 18.9705 107.332 18.9705H104.238V10.502H106.285V17.4001H107.332C107.623 17.4001 107.867 17.3439 108.065 17.2315C108.267 17.119 108.42 16.9697 108.525 16.7836C108.629 16.5936 108.682 16.3823 108.682 16.1496C108.682 15.9247 108.629 15.7251 108.525 15.5506C108.42 15.3761 108.267 15.2384 108.065 15.1376C107.867 15.0368 107.623 14.9864 107.332 14.9864H105.512V13.416Z" fill="#212F54"/>
<path d="M119.915 14.5676V14.9108C119.915 15.5583 119.824 16.14 119.641 16.6557C119.463 17.1675 119.209 17.6057 118.879 17.9701C118.55 18.3308 118.16 18.608 117.71 18.8019C117.261 18.9919 116.764 19.0869 116.221 19.0869C115.675 19.0869 115.174 18.9919 114.721 18.8019C114.271 18.608 113.879 18.3308 113.546 17.9701C113.216 17.6057 112.96 17.1675 112.778 16.6557C112.6 16.14 112.511 15.5583 112.511 14.9108V14.5676C112.511 13.9201 112.6 13.3384 112.778 12.8227C112.96 12.307 113.214 11.8689 113.54 11.5082C113.87 11.1438 114.259 10.8665 114.709 10.6765C115.163 10.4826 115.663 10.3857 116.21 10.3857C116.753 10.3857 117.249 10.4826 117.699 10.6765C118.152 10.8665 118.544 11.1438 118.874 11.5082C119.203 11.8689 119.459 12.307 119.641 12.8227C119.824 13.3384 119.915 13.9201 119.915 14.5676ZM117.844 14.9108V14.556C117.844 14.1372 117.807 13.7688 117.734 13.4509C117.664 13.129 117.559 12.8596 117.419 12.6424C117.28 12.4253 117.107 12.2624 116.902 12.1539C116.7 12.0414 116.469 11.9852 116.21 11.9852C115.938 11.9852 115.702 12.0414 115.5 12.1539C115.298 12.2624 115.13 12.4253 114.994 12.6424C114.858 12.8596 114.756 13.129 114.686 13.4509C114.62 13.7688 114.587 14.1372 114.587 14.556V14.9108C114.587 15.3257 114.62 15.694 114.686 16.0159C114.756 16.3338 114.858 16.6033 114.994 16.8243C115.134 17.0454 115.304 17.2121 115.506 17.3245C115.711 17.437 115.95 17.4932 116.221 17.4932C116.481 17.4932 116.712 17.437 116.913 17.3245C117.115 17.2121 117.284 17.0454 117.419 16.8243C117.559 16.6033 117.664 16.3338 117.734 16.0159C117.807 15.694 117.844 15.3257 117.844 14.9108Z" fill="#212F54"/>
<path d="M125.5 15.3703H123.319L123.307 14.0325H125.076C125.394 14.0325 125.648 13.9976 125.838 13.9278C126.028 13.8541 126.165 13.7475 126.25 13.6079C126.34 13.4683 126.384 13.2938 126.384 13.0845C126.384 12.8441 126.34 12.6502 126.25 12.5028C126.161 12.3555 126.02 12.2489 125.826 12.1829C125.636 12.1131 125.39 12.0782 125.087 12.0782H124.087V18.9705H122.045V10.502H125.087C125.611 10.502 126.078 10.5505 126.489 10.6474C126.9 10.7405 127.249 10.884 127.536 11.0778C127.827 11.2717 128.048 11.516 128.199 11.8107C128.35 12.1015 128.426 12.4447 128.426 12.8402C128.426 13.1853 128.352 13.509 128.205 13.8115C128.057 14.1139 127.811 14.3602 127.466 14.5502C127.125 14.7363 126.658 14.8332 126.064 14.841L125.5 15.3703ZM125.419 18.9705H122.825L123.523 17.4001H125.419C125.698 17.4001 125.921 17.3575 126.088 17.2722C126.258 17.183 126.38 17.0667 126.454 16.9232C126.532 16.7759 126.57 16.613 126.57 16.4346C126.57 16.2175 126.534 16.0294 126.46 15.8705C126.39 15.7115 126.278 15.5893 126.123 15.504C125.967 15.4149 125.76 15.3703 125.5 15.3703H123.784L123.796 14.0325H125.849L126.326 14.5676C126.892 14.5443 127.34 14.6238 127.67 14.8061C128.003 14.9883 128.242 15.2287 128.385 15.5273C128.529 15.8259 128.6 16.138 128.6 16.4637C128.6 17.0182 128.48 17.4816 128.24 17.8538C128.003 18.2261 127.648 18.5052 127.175 18.6914C126.702 18.8775 126.117 18.9705 125.419 18.9705Z" fill="#212F54"/>
<path d="M135.622 16.1031H137.658C137.631 16.6925 137.472 17.2121 137.181 17.6619C136.89 18.1117 136.487 18.4626 135.971 18.7146C135.46 18.9628 134.855 19.0869 134.157 19.0869C133.591 19.0869 133.085 18.9919 132.639 18.8019C132.197 18.6119 131.82 18.3385 131.51 17.9818C131.204 17.625 130.969 17.1927 130.806 16.6847C130.648 16.1768 130.568 15.6049 130.568 14.9689V14.5094C130.568 13.8735 130.651 13.3016 130.818 12.7936C130.989 12.2818 131.229 11.8475 131.539 11.4908C131.853 11.1302 132.23 10.8549 132.668 10.6649C133.106 10.4749 133.592 10.3799 134.128 10.3799C134.864 10.3799 135.487 10.5117 135.995 10.7754C136.503 11.0391 136.896 11.4016 137.175 11.863C137.455 12.3206 137.619 12.8421 137.67 13.4276H135.634C135.626 13.1097 135.572 12.8441 135.471 12.6308C135.37 12.4136 135.211 12.2508 134.994 12.1422C134.777 12.0336 134.488 11.9794 134.128 11.9794C133.876 11.9794 133.656 12.0259 133.47 12.119C133.284 12.212 133.129 12.3594 133.005 12.561C132.881 12.7626 132.788 13.0244 132.726 13.3462C132.668 13.6641 132.639 14.048 132.639 14.4978V14.9689C132.639 15.4187 132.666 15.8026 132.72 16.1206C132.774 16.4385 132.862 16.6983 132.982 16.8999C133.102 17.1016 133.257 17.2509 133.447 17.3478C133.641 17.4409 133.877 17.4874 134.157 17.4874C134.467 17.4874 134.729 17.4389 134.942 17.342C135.155 17.2412 135.32 17.0899 135.436 16.8883C135.553 16.6828 135.615 16.4211 135.622 16.1031Z" fill="#212F54"/>
<path d="M141.72 10.502V18.9705H139.684V10.502H141.72ZM146.605 10.502L143.563 15.6204H141.365L141.121 13.7766H142.511L144.139 10.502H146.605ZM144.488 18.9705L142.505 15.2656L143.988 13.8987L146.896 18.9705H144.488Z" fill="#212F54"/>
<path d="M152.069 12.2818L150.004 18.9705H147.811L150.923 10.502H152.313L152.069 12.2818ZM153.779 18.9705L151.708 12.2818L151.441 10.502H152.848L155.977 18.9705H153.779ZM153.697 15.8123V17.3885H149.353V15.8123H153.697Z" fill="#212F54"/>
<path d="M162.08 15.9984H159.818L159.213 15.7483C158.523 15.5312 157.997 15.2093 157.637 14.7828C157.276 14.3524 157.096 13.8037 157.096 13.1368C157.096 12.5552 157.226 12.0705 157.486 11.6827C157.745 11.2911 158.114 10.9964 158.591 10.7987C159.068 10.6009 159.634 10.502 160.289 10.502H163.36V18.9705H161.313V12.0782H160.289C159.882 12.0782 159.587 12.1849 159.405 12.3981C159.223 12.6075 159.132 12.9138 159.132 13.3171C159.132 13.6273 159.174 13.8716 159.26 14.05C159.349 14.2283 159.479 14.3563 159.649 14.4338C159.82 14.5075 160.033 14.5443 160.289 14.5443H162.069L162.08 15.9984ZM160.51 15.2365L158.713 18.9705H156.491L158.265 15.2365H160.51Z" fill="#212F54"/>
<path d="M77.6697 43.149V51.6176H75.634V43.149H77.6697ZM82.5554 43.149L79.5134 48.2674H77.3149L77.0706 46.4236H78.4607L80.0893 43.149H82.5554ZM80.4382 51.6176L78.4549 47.9126L79.938 46.5458L82.8462 51.6176H80.4382Z" fill="#212F54"/>
<path d="M91.4096 47.2146V47.5578C91.4096 48.2053 91.3185 48.787 91.1363 49.3027C90.9579 49.8145 90.7039 50.2527 90.3743 50.6172C90.0447 50.9778 89.655 51.255 89.2052 51.4489C88.7554 51.6389 88.2591 51.7339 87.7163 51.7339C87.1695 51.7339 86.6693 51.6389 86.2157 51.4489C85.7659 51.255 85.3742 50.9778 85.0408 50.6172C84.7112 50.2527 84.4553 49.8145 84.273 49.3027C84.0947 48.787 84.0055 48.2053 84.0055 47.5578V47.2146C84.0055 46.5671 84.0947 45.9855 84.273 45.4697C84.4553 44.954 84.7092 44.5159 85.035 44.1553C85.3646 43.7908 85.7542 43.5135 86.204 43.3235C86.6577 43.1297 87.1579 43.0327 87.7046 43.0327C88.2475 43.0327 88.7438 43.1297 89.1936 43.3235C89.6473 43.5135 90.0389 43.7908 90.3685 44.1553C90.6981 44.5159 90.954 44.954 91.1363 45.4697C91.3185 45.9855 91.4096 46.5671 91.4096 47.2146ZM89.339 47.5578V47.203C89.339 46.7842 89.3022 46.4159 89.2285 46.0979C89.1587 45.7761 89.054 45.5066 88.9144 45.2894C88.7748 45.0723 88.6023 44.9094 88.3968 44.8009C88.1951 44.6884 87.9644 44.6322 87.7046 44.6322C87.4332 44.6322 87.1967 44.6884 86.9951 44.8009C86.7934 44.9094 86.6247 45.0723 86.489 45.2894C86.3533 45.5066 86.2506 45.7761 86.1808 46.0979C86.1149 46.4159 86.0819 46.7842 86.0819 47.203V47.5578C86.0819 47.9727 86.1149 48.3411 86.1808 48.6629C86.2506 48.9808 86.3533 49.2503 86.489 49.4713C86.6286 49.6924 86.7992 49.8591 87.0009 49.9716C87.2064 50.084 87.4448 50.1402 87.7163 50.1402C87.9761 50.1402 88.2068 50.084 88.4084 49.9716C88.61 49.8591 88.7787 49.6924 88.9144 49.4713C89.054 49.2503 89.1587 48.9808 89.2285 48.6629C89.3022 48.3411 89.339 47.9727 89.339 47.5578Z" fill="#212F54"/>
<path d="M94.5523 43.149H96.2157L98.106 49.0409L99.9963 43.149H101.66L98.7807 51.6176H97.4313L94.5523 43.149ZM93.5402 43.149H95.2619L95.5818 49.64V51.6176H93.5402V43.149ZM100.95 43.149H102.678V51.6176H100.63V49.64L100.95 43.149Z" fill="#212F54"/>
<path d="M112.166 43.149V51.6176H110.124V44.7253H107.082V51.6176H105.047V43.149H112.166Z" fill="#212F54"/>
<path d="M118.106 44.9288L116.041 51.6176H113.849L116.96 43.149H118.35L118.106 44.9288ZM119.816 51.6176L117.746 44.9288L117.478 43.149H118.886L122.015 51.6176H119.816ZM119.735 48.4593V50.0355H115.39V48.4593H119.735Z" fill="#212F54"/>
<path d="M129.415 46.5109V48.0813H125.07V46.5109H129.415ZM125.751 43.149V51.6176H123.709V43.149H125.751ZM130.788 43.149V51.6176H128.752V43.149H130.788Z" fill="#212F54"/>
<path d="M135.082 48.4942L138.124 43.149H140.165V51.6176H138.124V46.2782L135.082 51.6176H133.04V43.149H135.082V48.4942Z" fill="#212F54"/>
<path d="M146.897 48.6454H144.634L144.029 48.3953C143.339 48.1782 142.814 47.8564 142.453 47.4298C142.092 46.9994 141.912 46.4508 141.912 45.7838C141.912 45.2022 142.042 44.7175 142.302 44.3297C142.561 43.9381 142.93 43.6434 143.407 43.4457C143.884 43.2479 144.45 43.149 145.105 43.149H148.176V51.6176H146.129V44.7253H145.105C144.698 44.7253 144.403 44.8319 144.221 45.0452C144.039 45.2545 143.948 45.5609 143.948 45.9641C143.948 46.2743 143.99 46.5186 144.076 46.697C144.165 46.8753 144.295 47.0033 144.465 47.0809C144.636 47.1545 144.849 47.1914 145.105 47.1914H146.885L146.897 48.6454ZM145.326 47.8835L143.529 51.6176H141.307L143.081 47.8835H145.326Z" fill="#212F54"/>
<path d="M79.7457 26.8258V35.2943H77.7042V26.8258H79.7457ZM82.2933 26.8258V28.402H75.2148V26.8258H82.2933Z" fill="#212F54"/>
<path d="M89.8216 33.7239V35.2943H85.3082V33.7239H89.8216ZM86.0352 26.8258V35.2943H83.9937V26.8258H86.0352ZM89.24 30.1876V31.7056H85.3082V30.1876H89.24ZM89.8391 26.8258V28.402H85.3082V26.8258H89.8391Z" fill="#212F54"/>
<path d="M98.6005 26.8258V35.2943H96.559V28.402H93.5171V35.2943H91.4814V26.8258H98.6005Z" fill="#212F54"/>
<path d="M106.46 26.8258V28.402H102.087V26.8258H106.46ZM107.839 26.8258V35.2943H105.797V26.8258H107.839ZM101.947 26.8258H103.977L103.756 31.1298C103.721 31.7812 103.655 32.3435 103.558 32.8165C103.461 33.2857 103.331 33.6812 103.168 34.0031C103.006 34.321 102.81 34.575 102.581 34.765C102.352 34.955 102.087 35.0907 101.784 35.1721C101.486 35.2536 101.15 35.2943 100.778 35.2943H100.284V33.7239L100.505 33.7006C100.683 33.6812 100.84 33.6328 100.976 33.5552C101.111 33.4738 101.228 33.3536 101.325 33.1946C101.425 33.0356 101.509 32.832 101.575 32.5839C101.641 32.3357 101.693 32.0352 101.732 31.6824C101.774 31.3256 101.804 30.9088 101.819 30.4319L101.947 26.8258Z" fill="#212F54"/>
<path d="M117.112 30.8913V31.2345C117.112 31.8821 117.021 32.4637 116.839 32.9794C116.66 33.4912 116.406 33.9294 116.077 34.2939C115.747 34.6545 115.358 34.9317 114.908 35.1256C114.458 35.3156 113.962 35.4106 113.419 35.4106C112.872 35.4106 112.372 35.3156 111.918 35.1256C111.468 34.9317 111.077 34.6545 110.743 34.2939C110.414 33.9294 110.158 33.4912 109.976 32.9794C109.797 32.4637 109.708 31.8821 109.708 31.2345V30.8913C109.708 30.2438 109.797 29.6622 109.976 29.1465C110.158 28.6307 110.412 28.1926 110.737 27.832C111.067 27.4675 111.457 27.1902 111.907 27.0002C112.36 26.8064 112.86 26.7094 113.407 26.7094C113.95 26.7094 114.446 26.8064 114.896 27.0002C115.35 27.1902 115.741 27.4675 116.071 27.832C116.401 28.1926 116.657 28.6307 116.839 29.1465C117.021 29.6622 117.112 30.2438 117.112 30.8913ZM115.042 31.2345V30.8797C115.042 30.4609 115.005 30.0926 114.931 29.7746C114.861 29.4528 114.757 29.1833 114.617 28.9662C114.477 28.749 114.305 28.5862 114.099 28.4776C113.898 28.3651 113.667 28.3089 113.407 28.3089C113.136 28.3089 112.899 28.3651 112.698 28.4776C112.496 28.5862 112.327 28.749 112.192 28.9662C112.056 29.1833 111.953 29.4528 111.883 29.7746C111.817 30.0926 111.784 30.4609 111.784 30.8797V31.2345C111.784 31.6494 111.817 32.0178 111.883 32.3396C111.953 32.6576 112.056 32.927 112.192 33.1481C112.331 33.3691 112.502 33.5358 112.703 33.6483C112.909 33.7607 113.147 33.8169 113.419 33.8169C113.679 33.8169 113.909 33.7607 114.111 33.6483C114.313 33.5358 114.481 33.3691 114.617 33.1481C114.757 32.927 114.861 32.6576 114.931 32.3396C115.005 32.0178 115.042 31.6494 115.042 31.2345Z" fill="#212F54"/>
<path d="M124.815 30.269V31.8452H121.157V30.269H124.815ZM118.458 32.4327H120.494C120.505 32.7506 120.567 33.0143 120.68 33.2237C120.796 33.4331 120.961 33.5901 121.174 33.6948C121.391 33.7995 121.655 33.8518 121.965 33.8518C122.244 33.8518 122.481 33.8034 122.675 33.7064C122.872 33.6056 123.033 33.4525 123.157 33.2469C123.281 33.0414 123.373 32.7778 123.431 32.4559C123.489 32.1341 123.518 31.7483 123.518 31.2985V30.8332C123.518 30.4726 123.497 30.1527 123.454 29.8735C123.415 29.5943 123.353 29.3558 123.268 29.1581C123.186 28.9565 123.084 28.7917 122.96 28.6637C122.839 28.5357 122.698 28.4407 122.535 28.3787C122.372 28.3167 122.19 28.2856 121.988 28.2856C121.628 28.2856 121.339 28.3419 121.122 28.4543C120.905 28.5668 120.746 28.7335 120.645 28.9545C120.548 29.1717 120.494 29.4392 120.482 29.7572H118.446C118.5 29.1717 118.667 28.6501 118.946 28.1926C119.226 27.7312 119.617 27.3686 120.121 27.1049C120.629 26.8413 121.252 26.7094 121.988 26.7094C122.527 26.7094 123.016 26.8044 123.454 26.9944C123.892 27.1844 124.266 27.4597 124.577 27.8203C124.891 28.181 125.131 28.6152 125.298 29.1232C125.464 29.6311 125.548 30.205 125.548 30.8448V31.2985C125.548 31.9344 125.466 32.5063 125.304 33.0143C125.145 33.5222 124.91 33.9546 124.6 34.3113C124.293 34.6681 123.919 34.9414 123.477 35.1314C123.035 35.3214 122.531 35.4164 121.965 35.4164C121.271 35.4164 120.666 35.2923 120.15 35.0442C119.639 34.7921 119.235 34.4412 118.941 33.9914C118.65 33.5416 118.489 33.022 118.458 32.4327Z" fill="#212F54"/>
<path d="M133.129 30.1876V31.758H128.784V30.1876H133.129ZM129.464 26.8258V35.2943H127.423V26.8258H129.464ZM134.501 26.8258V35.2943H132.466V26.8258H134.501Z" fill="#212F54"/>
<path d="M142.46 33.7239V35.2943H137.947V33.7239H142.46ZM138.674 26.8258V35.2943H136.632V26.8258H138.674ZM141.878 30.1876V31.7056H137.947V30.1876H141.878ZM142.477 26.8258V28.402H137.947V26.8258H142.477Z" fill="#212F54"/>
<path d="M147.511 32.421H145.405V30.8448H147.511C147.798 30.8448 148.03 30.7963 148.209 30.6994C148.387 30.6025 148.517 30.4687 148.598 30.2981C148.684 30.1236 148.726 29.9278 148.726 29.7106C148.726 29.478 148.684 29.2628 148.598 29.065C148.517 28.8673 148.387 28.7083 148.209 28.5881C148.03 28.464 147.798 28.402 147.511 28.402H146.173V35.2943H144.131V26.8258H147.511C148.189 26.8258 148.773 26.9498 149.261 27.198C149.754 27.4462 150.132 27.7874 150.396 28.2217C150.659 28.6521 150.791 29.1445 150.791 29.699C150.791 30.2457 150.659 30.7227 150.396 31.1298C150.132 31.537 149.754 31.8549 149.261 32.0837C148.773 32.3086 148.189 32.421 147.511 32.421Z" fill="#212F54"/>
<path d="M158.43 26.8258V28.402H154.748V35.2943H152.713V26.8258H158.43Z" fill="#212F54"/>
<path d="M166.028 33.7239V35.2943H161.515V33.7239H166.028ZM162.242 26.8258V35.2943H160.2V26.8258H162.242ZM165.446 30.1876V31.7056H161.515V30.1876H165.446ZM166.046 26.8258V28.402H161.515V26.8258H166.046Z" fill="#212F54"/>
<path d="M171.916 26.8258V35.2943H169.875V26.8258H171.916ZM174.464 26.8258V28.402H167.385V26.8258H174.464Z" fill="#212F54"/>
<path d="M178.089 32.1709L181.131 26.8258H183.173V35.2943H181.131V29.9549L178.089 35.2943H176.048V26.8258H178.089V32.1709Z" fill="#212F54"/>
<path d="M185.228 26.8258H187.27V29.4024C187.27 29.7436 187.324 30.0092 187.433 30.1992C187.545 30.3892 187.712 30.523 187.933 30.6005C188.154 30.6781 188.429 30.7169 188.759 30.7169C188.844 30.7169 188.966 30.713 189.125 30.7052C189.288 30.6936 189.46 30.6781 189.643 30.6587C189.825 30.6393 189.996 30.618 190.155 30.5947C190.314 30.5676 190.432 30.5365 190.509 30.5017V32.0721C190.428 32.1031 190.304 32.1322 190.137 32.1593C189.97 32.1864 189.794 32.2097 189.608 32.2291C189.422 32.2485 189.249 32.264 189.09 32.2756C188.935 32.2834 188.825 32.2873 188.759 32.2873C188.049 32.2873 187.429 32.1845 186.897 31.979C186.37 31.7735 185.959 31.4575 185.664 31.0309C185.374 30.6044 185.228 30.0616 185.228 29.4024V26.8258ZM190.108 26.8258H192.15V35.2943H190.108V26.8258Z" fill="#212F54"/>
<path d="M200.085 33.7239V35.2943H195.572V33.7239H200.085ZM196.299 26.8258V35.2943H194.257V26.8258H196.299ZM199.503 30.1876V31.7056H195.572V30.1876H199.503ZM200.102 26.8258V28.402H195.572V26.8258H200.102Z" fill="#212F54"/>
<path d="M206.572 32.4268H208.608C208.581 33.0162 208.422 33.5358 208.131 33.9856C207.84 34.4354 207.437 34.7863 206.921 35.0384C206.409 35.2865 205.805 35.4106 205.107 35.4106C204.54 35.4106 204.034 35.3156 203.589 35.1256C203.147 34.9356 202.77 34.6622 202.46 34.3055C202.154 33.9488 201.919 33.5164 201.756 33.0085C201.597 32.5005 201.518 31.9286 201.518 31.2927V30.8332C201.518 30.1973 201.601 29.6253 201.768 29.1174C201.939 28.6055 202.179 28.1713 202.489 27.8145C202.803 27.4539 203.179 27.1786 203.618 26.9886C204.056 26.7986 204.542 26.7036 205.078 26.7036C205.814 26.7036 206.437 26.8354 206.945 27.0991C207.452 27.3628 207.846 27.7253 208.125 28.1868C208.404 28.6443 208.569 29.1658 208.62 29.7513H206.584C206.576 29.4334 206.522 29.1678 206.421 28.9545C206.32 28.7374 206.161 28.5745 205.944 28.4659C205.727 28.3574 205.438 28.3031 205.078 28.3031C204.825 28.3031 204.606 28.3496 204.42 28.4427C204.234 28.5357 204.079 28.6831 203.955 28.8847C203.831 29.0864 203.738 29.3481 203.676 29.6699C203.618 29.9879 203.589 30.3718 203.589 30.8215V31.2927C203.589 31.7425 203.616 32.1263 203.67 32.4443C203.724 32.7623 203.811 33.022 203.932 33.2237C204.052 33.4253 204.207 33.5746 204.397 33.6715C204.591 33.7646 204.827 33.8111 205.107 33.8111C205.417 33.8111 205.679 33.7627 205.892 33.6657C206.105 33.5649 206.27 33.4137 206.386 33.212C206.503 33.0065 206.565 32.7448 206.572 32.4268Z" fill="#212F54"/>
<path d="M212.431 26.8258V35.2943H210.396V26.8258H212.431ZM217.317 26.8258L214.275 31.9441H212.077L211.832 30.1003H213.222L214.851 26.8258H217.317ZM215.2 35.2943L213.217 31.5893L214.7 30.2225L217.608 35.2943H215.2Z" fill="#212F54"/>
<path d="M222.542 28.6055L220.477 35.2943H218.285L221.396 26.8258H222.786L222.542 28.6055ZM224.252 35.2943L222.182 28.6055L221.914 26.8258H223.322L226.451 35.2943H224.252ZM224.171 32.136V33.7122H219.826V32.136H224.171Z" fill="#212F54"/>
<path d="M232.316 32.3222H230.053L229.448 32.0721C228.758 31.8549 228.233 31.5331 227.872 31.1065C227.511 30.6761 227.331 30.1275 227.331 29.4605C227.331 28.8789 227.461 28.3942 227.721 28.0065C227.981 27.6148 228.349 27.3201 228.826 27.1224C229.303 26.9246 229.869 26.8258 230.524 26.8258H233.595V35.2943H231.548V28.402H230.524C230.117 28.402 229.822 28.5086 229.64 28.7219C229.458 28.9313 229.367 29.2376 229.367 29.6408C229.367 29.951 229.409 30.1953 229.495 30.3737C229.584 30.5521 229.714 30.68 229.884 30.7576C230.055 30.8312 230.268 30.8681 230.524 30.8681H232.304L232.316 32.3222ZM230.745 31.5602L228.948 35.2943H226.726L228.5 31.5602H230.745Z" fill="#212F54"/>
</svg>
