<svg width="234" height="60" viewBox="0 0 234 60" fill="none" xmlns="http://www.w3.org/2000/svg">
<path fill-rule="evenodd" clip-rule="evenodd" d="M34.4118 18.0882V20.7353V32.5048L49.1545 17.7621H52.898L41.5248 29.1353L47.3447 36.3436L53.1645 43.552L55.267 46.1803C49.9331 54.4924 40.6097 60 30 60C13.4315 60 0 46.5685 0 30C0 27.5687 0.289231 25.2049 0.835164 22.9412H4.10495C3.49328 25.1904 3.16682 27.5571 3.16682 30C3.16682 44.8196 15.1804 56.8332 30 56.8332C38.8801 56.8332 46.7527 52.5196 51.6368 45.8735L39.6424 31.0177L34.4118 36.2484V42.7941H31.7647V20.7353H24.2647L24.2647 42.7941H21.6176L21.6176 20.7353H18.0882L18.0882 42.7941H15.4412L15.4412 20.7353H4.8092H3.08824H1.45791C5.3615 8.70088 16.6647 0 30 0C46.5685 0 60 13.4315 60 30C60 34.9681 58.7924 39.6541 56.6547 43.7805L54.4689 41.0294C55.9878 37.665 56.8332 33.9312 56.8332 30C56.8332 15.1804 44.8196 3.16682 30 3.16682C19.4587 3.16682 10.3372 9.24522 5.94904 18.0882H15.4412H18.0882H21.6176H24.2647H31.7647H34.4118Z" fill="#E67523"/>
<path d="M79.7457 10.502V18.9705H77.7042V10.502H79.7457ZM82.2933 10.502V12.0782H75.2148V10.502H82.2933Z" fill="#F5F2EF"/>
<path d="M87.111 12.2818L85.0462 18.9705H82.8535L85.9652 10.502H87.3553L87.111 12.2818ZM88.821 18.9705L86.7504 12.2818L86.4829 10.502H87.8904L91.0196 18.9705H88.821ZM88.7396 15.8123V17.3885H84.3948V15.8123H88.7396Z" fill="#F5F2EF"/>
<path d="M93.726 10.502H95.3895L97.2798 16.3939L99.1701 10.502H100.834L97.9544 18.9705H96.6051L93.726 10.502ZM92.714 10.502H94.4356L94.7555 16.993V18.9705H92.714V10.502ZM100.124 10.502H101.851V18.9705H99.804V16.993L100.124 10.502Z" fill="#F5F2EF"/>
<path d="M109.95 10.502V12.0782H106.268V18.9705H104.232V10.502H109.95ZM105.512 13.416H107.332C108.018 13.416 108.616 13.5304 109.124 13.7591C109.632 13.9879 110.023 14.3078 110.298 14.7188C110.578 15.1299 110.717 15.6107 110.717 16.1613C110.717 16.5762 110.638 16.9562 110.479 17.3013C110.32 17.6425 110.091 17.9391 109.792 18.1912C109.498 18.4393 109.143 18.6313 108.728 18.767C108.313 18.9027 107.848 18.9705 107.332 18.9705H104.238V10.502H106.285V17.4001H107.332C107.623 17.4001 107.867 17.3439 108.065 17.2315C108.267 17.119 108.42 16.9697 108.525 16.7836C108.629 16.5936 108.682 16.3823 108.682 16.1496C108.682 15.9247 108.629 15.7251 108.525 15.5506C108.42 15.3761 108.267 15.2384 108.065 15.1376C107.867 15.0368 107.623 14.9864 107.332 14.9864H105.512V13.416Z" fill="#F5F2EF"/>
<path d="M119.915 14.5676V14.9108C119.915 15.5583 119.824 16.14 119.641 16.6557C119.463 17.1675 119.209 17.6057 118.879 17.9701C118.55 18.3308 118.16 18.608 117.71 18.8019C117.261 18.9919 116.764 19.0869 116.221 19.0869C115.675 19.0869 115.174 18.9919 114.721 18.8019C114.271 18.608 113.879 18.3308 113.546 17.9701C113.216 17.6057 112.96 17.1675 112.778 16.6557C112.6 16.14 112.511 15.5583 112.511 14.9108V14.5676C112.511 13.9201 112.6 13.3384 112.778 12.8227C112.96 12.307 113.214 11.8689 113.54 11.5082C113.87 11.1438 114.259 10.8665 114.709 10.6765C115.163 10.4826 115.663 10.3857 116.21 10.3857C116.753 10.3857 117.249 10.4826 117.699 10.6765C118.152 10.8665 118.544 11.1438 118.874 11.5082C119.203 11.8689 119.459 12.307 119.641 12.8227C119.824 13.3384 119.915 13.9201 119.915 14.5676ZM117.844 14.9108V14.556C117.844 14.1372 117.807 13.7688 117.734 13.4509C117.664 13.129 117.559 12.8596 117.419 12.6424C117.28 12.4253 117.107 12.2624 116.902 12.1539C116.7 12.0414 116.469 11.9852 116.21 11.9852C115.938 11.9852 115.702 12.0414 115.5 12.1539C115.298 12.2624 115.13 12.4253 114.994 12.6424C114.858 12.8596 114.756 13.129 114.686 13.4509C114.62 13.7688 114.587 14.1372 114.587 14.556V14.9108C114.587 15.3257 114.62 15.694 114.686 16.0159C114.756 16.3338 114.858 16.6033 114.994 16.8243C115.134 17.0454 115.304 17.2121 115.506 17.3245C115.711 17.437 115.95 17.4932 116.221 17.4932C116.481 17.4932 116.712 17.437 116.913 17.3245C117.115 17.2121 117.284 17.0454 117.419 16.8243C117.559 16.6033 117.664 16.3338 117.734 16.0159C117.807 15.694 117.844 15.3257 117.844 14.9108Z" fill="#F5F2EF"/>
<path d="M125.5 15.3703H123.319L123.307 14.0325H125.076C125.394 14.0325 125.648 13.9976 125.838 13.9278C126.028 13.8541 126.165 13.7475 126.25 13.6079C126.34 13.4683 126.384 13.2938 126.384 13.0845C126.384 12.8441 126.34 12.6502 126.25 12.5028C126.161 12.3555 126.02 12.2489 125.826 12.1829C125.636 12.1131 125.39 12.0782 125.087 12.0782H124.087V18.9705H122.045V10.502H125.087C125.611 10.502 126.078 10.5505 126.489 10.6474C126.9 10.7405 127.249 10.884 127.536 11.0778C127.827 11.2717 128.048 11.516 128.199 11.8107C128.35 12.1015 128.426 12.4447 128.426 12.8402C128.426 13.1853 128.352 13.509 128.205 13.8115C128.057 14.1139 127.811 14.3602 127.466 14.5502C127.125 14.7363 126.658 14.8332 126.064 14.841L125.5 15.3703ZM125.419 18.9705H122.825L123.523 17.4001H125.419C125.698 17.4001 125.921 17.3575 126.088 17.2722C126.258 17.183 126.38 17.0667 126.454 16.9232C126.532 16.7759 126.57 16.613 126.57 16.4346C126.57 16.2175 126.534 16.0294 126.46 15.8705C126.39 15.7115 126.278 15.5893 126.123 15.504C125.967 15.4149 125.76 15.3703 125.5 15.3703H123.784L123.796 14.0325H125.849L126.326 14.5676C126.892 14.5443 127.34 14.6238 127.67 14.8061C128.003 14.9883 128.242 15.2287 128.385 15.5273C128.529 15.8259 128.6 16.138 128.6 16.4637C128.6 17.0182 128.48 17.4816 128.24 17.8538C128.003 18.2261 127.648 18.5052 127.175 18.6914C126.702 18.8775 126.117 18.9705 125.419 18.9705Z" fill="#F5F2EF"/>
<path d="M135.622 16.1031H137.658C137.631 16.6925 137.472 17.2121 137.181 17.6619C136.89 18.1117 136.487 18.4626 135.971 18.7146C135.46 18.9628 134.855 19.0869 134.157 19.0869C133.591 19.0869 133.085 18.9919 132.639 18.8019C132.197 18.6119 131.82 18.3385 131.51 17.9818C131.204 17.625 130.969 17.1927 130.806 16.6847C130.648 16.1768 130.568 15.6049 130.568 14.9689V14.5094C130.568 13.8735 130.651 13.3016 130.818 12.7936C130.989 12.2818 131.229 11.8475 131.539 11.4908C131.853 11.1302 132.23 10.8549 132.668 10.6649C133.106 10.4749 133.592 10.3799 134.128 10.3799C134.864 10.3799 135.487 10.5117 135.995 10.7754C136.503 11.0391 136.896 11.4016 137.175 11.863C137.455 12.3206 137.619 12.8421 137.67 13.4276H135.634C135.626 13.1097 135.572 12.8441 135.471 12.6308C135.37 12.4136 135.211 12.2508 134.994 12.1422C134.777 12.0336 134.488 11.9794 134.128 11.9794C133.876 11.9794 133.656 12.0259 133.47 12.119C133.284 12.212 133.129 12.3594 133.005 12.561C132.881 12.7626 132.788 13.0244 132.726 13.3462C132.668 13.6641 132.639 14.048 132.639 14.4978V14.9689C132.639 15.4187 132.666 15.8026 132.72 16.1206C132.774 16.4385 132.862 16.6983 132.982 16.8999C133.102 17.1016 133.257 17.2509 133.447 17.3478C133.641 17.4409 133.877 17.4874 134.157 17.4874C134.467 17.4874 134.729 17.4389 134.942 17.342C135.155 17.2412 135.32 17.0899 135.436 16.8883C135.553 16.6828 135.615 16.4211 135.622 16.1031Z" fill="#F5F2EF"/>
<path d="M141.72 10.502V18.9705H139.684V10.502H141.72ZM146.605 10.502L143.563 15.6204H141.365L141.121 13.7766H142.511L144.139 10.502H146.605ZM144.488 18.9705L142.505 15.2656L143.988 13.8987L146.896 18.9705H144.488Z" fill="#F5F2EF"/>
<path d="M152.069 12.2818L150.004 18.9705H147.811L150.923 10.502H152.313L152.069 12.2818ZM153.779 18.9705L151.708 12.2818L151.441 10.502H152.848L155.977 18.9705H153.779ZM153.697 15.8123V17.3885H149.353V15.8123H153.697Z" fill="#F5F2EF"/>
<path d="M162.08 15.9984H159.818L159.213 15.7483C158.523 15.5312 157.997 15.2093 157.637 14.7828C157.276 14.3524 157.096 13.8037 157.096 13.1368C157.096 12.5552 157.226 12.0705 157.486 11.6827C157.745 11.2911 158.114 10.9964 158.591 10.7987C159.068 10.6009 159.634 10.502 160.289 10.502H163.36V18.9705H161.313V12.0782H160.289C159.882 12.0782 159.587 12.1849 159.405 12.3981C159.223 12.6075 159.132 12.9138 159.132 13.3171C159.132 13.6273 159.174 13.8716 159.26 14.05C159.349 14.2283 159.479 14.3563 159.649 14.4338C159.82 14.5075 160.033 14.5443 160.289 14.5443H162.069L162.08 15.9984ZM160.51 15.2365L158.713 18.9705H156.491L158.265 15.2365H160.51Z" fill="#F5F2EF"/>
<path d="M77.6697 43.1491V51.6176H75.634V43.1491H77.6697ZM82.5554 43.1491L79.5134 48.2674H77.3149L77.0706 46.4237H78.4607L80.0893 43.1491H82.5554ZM80.4382 51.6176L78.4549 47.9126L79.938 46.5458L82.8462 51.6176H80.4382Z" fill="#F5F2EF"/>
<path d="M91.4096 47.2147V47.5579C91.4096 48.2054 91.3185 48.787 91.1363 49.3027C90.9579 49.8146 90.7039 50.2527 90.3743 50.6172C90.0447 50.9778 89.655 51.2551 89.2052 51.4489C88.7554 51.6389 88.2591 51.7339 87.7163 51.7339C87.1695 51.7339 86.6693 51.6389 86.2157 51.4489C85.7659 51.2551 85.3742 50.9778 85.0408 50.6172C84.7112 50.2527 84.4553 49.8146 84.273 49.3027C84.0947 48.787 84.0055 48.2054 84.0055 47.5579V47.2147C84.0055 46.5671 84.0947 45.9855 84.273 45.4698C84.4553 44.9541 84.7092 44.5159 85.035 44.1553C85.3646 43.7908 85.7542 43.5136 86.204 43.3236C86.6577 43.1297 87.1579 43.0328 87.7046 43.0328C88.2475 43.0328 88.7438 43.1297 89.1936 43.3236C89.6473 43.5136 90.0389 43.7908 90.3685 44.1553C90.6981 44.5159 90.954 44.9541 91.1363 45.4698C91.3185 45.9855 91.4096 46.5671 91.4096 47.2147ZM89.339 47.5579V47.2031C89.339 46.7843 89.3022 46.4159 89.2285 46.098C89.1587 45.7761 89.054 45.5066 88.9144 45.2895C88.7748 45.0724 88.6023 44.9095 88.3968 44.8009C88.1951 44.6885 87.9644 44.6323 87.7046 44.6323C87.4332 44.6323 87.1967 44.6885 86.9951 44.8009C86.7934 44.9095 86.6247 45.0724 86.489 45.2895C86.3533 45.5066 86.2506 45.7761 86.1808 46.098C86.1149 46.4159 86.0819 46.7843 86.0819 47.2031V47.5579C86.0819 47.9727 86.1149 48.3411 86.1808 48.6629C86.2506 48.9809 86.3533 49.2504 86.489 49.4714C86.6286 49.6924 86.7992 49.8592 87.0009 49.9716C87.2064 50.0841 87.4448 50.1403 87.7163 50.1403C87.9761 50.1403 88.2068 50.0841 88.4084 49.9716C88.61 49.8592 88.7787 49.6924 88.9144 49.4714C89.054 49.2504 89.1587 48.9809 89.2285 48.6629C89.3022 48.3411 89.339 47.9727 89.339 47.5579Z" fill="#F5F2EF"/>
<path d="M94.5523 43.1491H96.2157L98.106 49.041L99.9963 43.1491H101.66L98.7807 51.6176H97.4313L94.5523 43.1491ZM93.5402 43.1491H95.2619L95.5818 49.6401V51.6176H93.5402V43.1491ZM100.95 43.1491H102.678V51.6176H100.63V49.6401L100.95 43.1491Z" fill="#F5F2EF"/>
<path d="M112.166 43.1491V51.6176H110.124V44.7253H107.082V51.6176H105.047V43.1491H112.166Z" fill="#F5F2EF"/>
<path d="M118.106 44.9289L116.041 51.6176H113.849L116.96 43.1491H118.35L118.106 44.9289ZM119.816 51.6176L117.746 44.9289L117.478 43.1491H118.886L122.015 51.6176H119.816ZM119.735 48.4594V50.0356H115.39V48.4594H119.735Z" fill="#F5F2EF"/>
<path d="M129.415 46.5109V48.0813H125.07V46.5109H129.415ZM125.751 43.1491V51.6176H123.709V43.1491H125.751ZM130.788 43.1491V51.6176H128.752V43.1491H130.788Z" fill="#F5F2EF"/>
<path d="M135.082 48.4943L138.124 43.1491H140.165V51.6176H138.124V46.2783L135.082 51.6176H133.04V43.1491H135.082V48.4943Z" fill="#F5F2EF"/>
<path d="M146.897 48.6455H144.634L144.029 48.3954C143.339 48.1783 142.814 47.8564 142.453 47.4299C142.092 46.9995 141.912 46.4508 141.912 45.7839C141.912 45.2023 142.042 44.7176 142.302 44.3298C142.561 43.9382 142.93 43.6435 143.407 43.4457C143.884 43.248 144.45 43.1491 145.105 43.1491H148.176V51.6176H146.129V44.7253H145.105C144.698 44.7253 144.403 44.8319 144.221 45.0452C144.039 45.2546 143.948 45.5609 143.948 45.9642C143.948 46.2744 143.99 46.5187 144.076 46.697C144.165 46.8754 144.295 47.0034 144.465 47.0809C144.636 47.1546 144.849 47.1914 145.105 47.1914H146.885L146.897 48.6455ZM145.326 47.8836L143.529 51.6176H141.307L143.081 47.8836H145.326Z" fill="#F5F2EF"/>
<path d="M79.7457 26.8256V35.2942H77.7042V26.8256H79.7457ZM82.2933 26.8256V28.4018H75.2148V26.8256H82.2933Z" fill="#F5F2EF"/>
<path d="M89.8216 33.7238V35.2942H85.3082V33.7238H89.8216ZM86.0352 26.8256V35.2942H83.9937V26.8256H86.0352ZM89.24 30.1874V31.7055H85.3082V30.1874H89.24ZM89.8391 26.8256V28.4018H85.3082V26.8256H89.8391Z" fill="#F5F2EF"/>
<path d="M98.6005 26.8256V35.2942H96.559V28.4018H93.5171V35.2942H91.4814V26.8256H98.6005Z" fill="#F5F2EF"/>
<path d="M106.46 26.8256V28.4018H102.087V26.8256H106.46ZM107.839 26.8256V35.2942H105.797V26.8256H107.839ZM101.947 26.8256H103.977L103.756 31.1297C103.721 31.7811 103.655 32.3434 103.558 32.8164C103.461 33.2856 103.331 33.6811 103.168 34.0029C103.006 34.3209 102.81 34.5749 102.581 34.7649C102.352 34.9549 102.087 35.0906 101.784 35.172C101.486 35.2534 101.15 35.2942 100.778 35.2942H100.284V33.7238L100.505 33.7005C100.683 33.6811 100.84 33.6326 100.976 33.5551C101.111 33.4737 101.228 33.3535 101.325 33.1945C101.425 33.0355 101.509 32.8319 101.575 32.5838C101.641 32.3356 101.693 32.0351 101.732 31.6822C101.774 31.3255 101.804 30.9087 101.819 30.4317L101.947 26.8256Z" fill="#F5F2EF"/>
<path d="M117.112 30.8912V31.2344C117.112 31.8819 117.021 32.4636 116.839 32.9793C116.66 33.4911 116.406 33.9293 116.077 34.2938C115.747 34.6544 115.358 34.9316 114.908 35.1255C114.458 35.3155 113.962 35.4105 113.419 35.4105C112.872 35.4105 112.372 35.3155 111.918 35.1255C111.468 34.9316 111.077 34.6544 110.743 34.2938C110.414 33.9293 110.158 33.4911 109.976 32.9793C109.797 32.4636 109.708 31.8819 109.708 31.2344V30.8912C109.708 30.2437 109.797 29.662 109.976 29.1463C110.158 28.6306 110.412 28.1925 110.737 27.8319C111.067 27.4674 111.457 27.1901 111.907 27.0001C112.36 26.8062 112.86 26.7093 113.407 26.7093C113.95 26.7093 114.446 26.8062 114.896 27.0001C115.35 27.1901 115.741 27.4674 116.071 27.8319C116.401 28.1925 116.657 28.6306 116.839 29.1463C117.021 29.662 117.112 30.2437 117.112 30.8912ZM115.042 31.2344V30.8796C115.042 30.4608 115.005 30.0925 114.931 29.7745C114.861 29.4527 114.757 29.1832 114.617 28.966C114.477 28.7489 114.305 28.586 114.099 28.4775C113.898 28.365 113.667 28.3088 113.407 28.3088C113.136 28.3088 112.899 28.365 112.698 28.4775C112.496 28.586 112.327 28.7489 112.192 28.966C112.056 29.1832 111.953 29.4527 111.883 29.7745C111.817 30.0925 111.784 30.4608 111.784 30.8796V31.2344C111.784 31.6493 111.817 32.0176 111.883 32.3395C111.953 32.6574 112.056 32.9269 112.192 33.1479C112.331 33.369 112.502 33.5357 112.703 33.6481C112.909 33.7606 113.147 33.8168 113.419 33.8168C113.679 33.8168 113.909 33.7606 114.111 33.6481C114.313 33.5357 114.481 33.369 114.617 33.1479C114.757 32.9269 114.861 32.6574 114.931 32.3395C115.005 32.0176 115.042 31.6493 115.042 31.2344Z" fill="#F5F2EF"/>
<path d="M124.815 30.2689V31.8451H121.157V30.2689H124.815ZM118.458 32.4325H120.494C120.505 32.7505 120.567 33.0142 120.68 33.2236C120.796 33.4329 120.961 33.59 121.174 33.6947C121.391 33.7994 121.655 33.8517 121.965 33.8517C122.244 33.8517 122.481 33.8032 122.675 33.7063C122.872 33.6055 123.033 33.4523 123.157 33.2468C123.281 33.0413 123.373 32.7776 123.431 32.4558C123.489 32.134 123.518 31.7482 123.518 31.2984V30.8331C123.518 30.4724 123.497 30.1526 123.454 29.8734C123.415 29.5942 123.353 29.3557 123.268 29.158C123.186 28.9563 123.084 28.7915 122.96 28.6636C122.839 28.5356 122.698 28.4406 122.535 28.3786C122.372 28.3165 122.19 28.2855 121.988 28.2855C121.628 28.2855 121.339 28.3417 121.122 28.4542C120.905 28.5666 120.746 28.7334 120.645 28.9544C120.548 29.1715 120.494 29.4391 120.482 29.757H118.446C118.5 29.1715 118.667 28.65 118.946 28.1925C119.226 27.731 119.617 27.3685 120.121 27.1048C120.629 26.8411 121.252 26.7093 121.988 26.7093C122.527 26.7093 123.016 26.8043 123.454 26.9943C123.892 27.1843 124.266 27.4596 124.577 27.8202C124.891 28.1808 125.131 28.6151 125.298 29.1231C125.464 29.631 125.548 30.2049 125.548 30.8447V31.2984C125.548 31.9343 125.466 32.5062 125.304 33.0142C125.145 33.5221 124.91 33.9545 124.6 34.3112C124.293 34.6679 123.919 34.9413 123.477 35.1313C123.035 35.3213 122.531 35.4163 121.965 35.4163C121.271 35.4163 120.666 35.2922 120.15 35.0441C119.639 34.792 119.235 34.4411 118.941 33.9913C118.65 33.5415 118.489 33.0219 118.458 32.4325Z" fill="#F5F2EF"/>
<path d="M133.129 30.1874V31.7578H128.784V30.1874H133.129ZM129.464 26.8256V35.2942H127.423V26.8256H129.464ZM134.501 26.8256V35.2942H132.466V26.8256H134.501Z" fill="#F5F2EF"/>
<path d="M142.46 33.7238V35.2942H137.947V33.7238H142.46ZM138.674 26.8256V35.2942H136.632V26.8256H138.674ZM141.878 30.1874V31.7055H137.947V30.1874H141.878ZM142.477 26.8256V28.4018H137.947V26.8256H142.477Z" fill="#F5F2EF"/>
<path d="M147.511 32.4209H145.405V30.8447H147.511C147.798 30.8447 148.03 30.7962 148.209 30.6993C148.387 30.6023 148.517 30.4686 148.598 30.298C148.684 30.1235 148.726 29.9277 148.726 29.7105C148.726 29.4779 148.684 29.2627 148.598 29.0649C148.517 28.8672 148.387 28.7082 148.209 28.588C148.03 28.4639 147.798 28.4018 147.511 28.4018H146.173V35.2942H144.131V26.8256H147.511C148.189 26.8256 148.773 26.9497 149.261 27.1979C149.754 27.446 150.132 27.7873 150.396 28.2215C150.659 28.6519 150.791 29.1444 150.791 29.6989C150.791 30.2456 150.659 30.7225 150.396 31.1297C150.132 31.5368 149.754 31.8548 149.261 32.0836C148.773 32.3085 148.189 32.4209 147.511 32.4209Z" fill="#F5F2EF"/>
<path d="M158.43 26.8256V28.4018H154.748V35.2942H152.713V26.8256H158.43Z" fill="#F5F2EF"/>
<path d="M166.028 33.7238V35.2942H161.515V33.7238H166.028ZM162.242 26.8256V35.2942H160.2V26.8256H162.242ZM165.446 30.1874V31.7055H161.515V30.1874H165.446ZM166.046 26.8256V28.4018H161.515V26.8256H166.046Z" fill="#F5F2EF"/>
<path d="M171.916 26.8256V35.2942H169.875V26.8256H171.916ZM174.464 26.8256V28.4018H167.385V26.8256H174.464Z" fill="#F5F2EF"/>
<path d="M178.089 32.1708L181.131 26.8256H183.173V35.2942H181.131V29.9548L178.089 35.2942H176.048V26.8256H178.089V32.1708Z" fill="#F5F2EF"/>
<path d="M185.228 26.8256H187.27V29.4023C187.27 29.7435 187.324 30.0091 187.433 30.1991C187.545 30.3891 187.712 30.5229 187.933 30.6004C188.154 30.678 188.429 30.7167 188.759 30.7167C188.844 30.7167 188.966 30.7129 189.125 30.7051C189.288 30.6935 189.46 30.678 189.643 30.6586C189.825 30.6392 189.996 30.6179 190.155 30.5946C190.314 30.5674 190.432 30.5364 190.509 30.5015V32.0719C190.428 32.1029 190.304 32.132 190.137 32.1592C189.97 32.1863 189.794 32.2096 189.608 32.229C189.422 32.2484 189.249 32.2639 189.09 32.2755C188.935 32.2833 188.825 32.2871 188.759 32.2871C188.049 32.2871 187.429 32.1844 186.897 31.9789C186.37 31.7734 185.959 31.4573 185.664 31.0308C185.374 30.6043 185.228 30.0614 185.228 29.4023V26.8256ZM190.108 26.8256H192.15V35.2942H190.108V26.8256Z" fill="#F5F2EF"/>
<path d="M200.085 33.7238V35.2942H195.572V33.7238H200.085ZM196.299 26.8256V35.2942H194.257V26.8256H196.299ZM199.503 30.1874V31.7055H195.572V30.1874H199.503ZM200.102 26.8256V28.4018H195.572V26.8256H200.102Z" fill="#F5F2EF"/>
<path d="M206.572 32.4267H208.608C208.581 33.0161 208.422 33.5357 208.131 33.9855C207.84 34.4353 207.437 34.7862 206.921 35.0382C206.409 35.2864 205.805 35.4105 205.107 35.4105C204.54 35.4105 204.034 35.3155 203.589 35.1255C203.146 34.9355 202.77 34.6621 202.46 34.3054C202.154 33.9487 201.919 33.5163 201.756 33.0084C201.597 32.5004 201.518 31.9285 201.518 31.2925V30.8331C201.518 30.1971 201.601 29.6252 201.768 29.1173C201.939 28.6054 202.179 28.1711 202.489 27.8144C202.803 27.4538 203.179 27.1785 203.618 26.9885C204.056 26.7985 204.542 26.7035 205.078 26.7035C205.814 26.7035 206.437 26.8353 206.945 27.099C207.452 27.3627 207.846 27.7252 208.125 28.1866C208.404 28.6442 208.569 29.1657 208.62 29.7512H206.584C206.576 29.4333 206.522 29.1677 206.421 28.9544C206.32 28.7373 206.161 28.5744 205.944 28.4658C205.727 28.3573 205.438 28.303 205.078 28.303C204.825 28.303 204.606 28.3495 204.42 28.4426C204.234 28.5356 204.079 28.683 203.955 28.8846C203.831 29.0862 203.738 29.348 203.676 29.6698C203.618 29.9878 203.589 30.3716 203.589 30.8214V31.2925C203.589 31.7423 203.616 32.1262 203.67 32.4442C203.724 32.7621 203.811 33.0219 203.932 33.2236C204.052 33.4252 204.207 33.5745 204.397 33.6714C204.591 33.7645 204.827 33.811 205.107 33.811C205.417 33.811 205.679 33.7625 205.892 33.6656C206.105 33.5648 206.27 33.4136 206.386 33.2119C206.503 33.0064 206.565 32.7447 206.572 32.4267Z" fill="#F5F2EF"/>
<path d="M212.431 26.8256V35.2942H210.396V26.8256H212.431ZM217.317 26.8256L214.275 31.944H212.077L211.832 30.1002H213.222L214.851 26.8256H217.317ZM215.2 35.2942L213.217 31.5892L214.7 30.2223L217.608 35.2942H215.2Z" fill="#F5F2EF"/>
<path d="M222.542 28.6054L220.477 35.2942H218.285L221.396 26.8256H222.786L222.542 28.6054ZM224.252 35.2942L222.182 28.6054L221.914 26.8256H223.322L226.451 35.2942H224.252ZM224.171 32.1359V33.7121H219.826V32.1359H224.171Z" fill="#F5F2EF"/>
<path d="M232.316 32.322H230.053L229.448 32.0719C228.758 31.8548 228.233 31.533 227.872 31.1064C227.511 30.676 227.331 30.1273 227.331 29.4604C227.331 28.8788 227.461 28.3941 227.721 28.0063C227.981 27.6147 228.349 27.32 228.826 27.1223C229.303 26.9245 229.869 26.8256 230.524 26.8256H233.595V35.2942H231.548V28.4018H230.524C230.117 28.4018 229.822 28.5085 229.64 28.7217C229.458 28.9311 229.367 29.2375 229.367 29.6407C229.367 29.9509 229.409 30.1952 229.495 30.3736C229.584 30.5519 229.714 30.6799 229.884 30.7574C230.055 30.8311 230.268 30.868 230.524 30.868H232.304L232.316 32.322ZM230.745 31.5601L228.948 35.2942H226.726L228.5 31.5601H230.745Z" fill="#F5F2EF"/>
</svg>
