<svg width="24" height="24" viewBox="0 0 24 24" fill="none" xmlns="http://www.w3.org/2000/svg">
<path d="M22.7488 18.9413C22.7488 19.3314 22.662 19.7322 22.4776 20.1222C22.2931 20.5123 22.0544 20.8806 21.7398 21.2273C21.2081 21.8123 20.6222 22.2349 19.9603 22.5057C19.3093 22.7766 18.604 22.9174 17.8445 22.9174C16.7378 22.9174 15.5551 22.6574 14.3074 22.1265C13.0596 21.5957 11.8118 20.8806 10.5749 19.9814C9.3271 19.0714 8.14443 18.0638 7.016 16.9479C5.89843 15.8212 4.88936 14.6403 3.98879 13.4052C3.09907 12.1701 2.38296 10.9351 1.86215 9.71082C1.34134 8.47575 1.08093 7.29485 1.08093 6.16812C1.08093 5.43141 1.21114 4.72721 1.47154 4.07717C1.73195 3.4163 2.14425 2.8096 2.71932 2.2679C3.41373 1.58536 4.17325 1.24951 4.97616 1.24951C5.27997 1.24951 5.58377 1.31452 5.85503 1.44452C6.13714 1.57453 6.38669 1.76954 6.58199 2.05122L9.09925 5.59392C9.29455 5.86477 9.4356 6.11395 9.53325 6.3523C9.63091 6.57981 9.68516 6.80733 9.68516 7.01317C9.68516 7.27319 9.60921 7.5332 9.4573 7.78238C9.31625 8.03156 9.1101 8.29158 8.84969 8.55159L8.02507 9.40747C7.90572 9.52665 7.85147 9.66749 7.85147 9.84083C7.85147 9.9275 7.86232 10.0033 7.88402 10.09C7.91657 10.1767 7.94912 10.2417 7.97082 10.3067C8.16613 10.6642 8.50248 11.1301 8.97989 11.6934C9.46815 12.2568 9.98896 12.831 10.5532 13.4052C11.1391 13.9794 11.7033 14.5103 12.2784 14.9978C12.8426 15.4745 13.3091 15.7995 13.678 15.9945C13.7323 16.0162 13.7974 16.0487 13.8733 16.0812C13.9601 16.1137 14.0469 16.1245 14.1446 16.1245C14.3291 16.1245 14.4701 16.0595 14.5895 15.9403L15.4141 15.1278C15.6853 14.8569 15.9457 14.6511 16.1953 14.5211C16.4448 14.3694 16.6944 14.2936 16.9657 14.2936C17.1718 14.2936 17.3888 14.3369 17.6275 14.4344C17.8662 14.5319 18.1158 14.6728 18.387 14.8569L21.9785 17.4029C22.2606 17.5979 22.4559 17.8254 22.5752 18.0963C22.6837 18.3671 22.7488 18.638 22.7488 18.9413Z" stroke="white" stroke-width="1.5" stroke-miterlimit="10"/>
<path d="M18.4142 8.83309C18.4142 8.09019 17.9778 6.95108 17.3278 6.02246C16.7334 5.16812 15.9441 4.49951 15.1641 4.49951" stroke="white" stroke-width="1.5" stroke-linecap="round" stroke-linejoin="round"/>
<path d="M22.7478 8.83328C22.7478 4.64054 19.3568 1.24951 15.1641 1.24951" stroke="white" stroke-width="1.5" stroke-linecap="round" stroke-linejoin="round"/>
</svg>
