<svg width="30" height="30" viewBox="0 0 30 30" fill="none" xmlns="http://www.w3.org/2000/svg">
<path d="M24.7489 22.9415C24.7489 23.3315 24.6621 23.7324 24.4777 24.1224C24.2932 24.5124 24.0545 24.8808 23.7399 25.2275C23.2082 25.8125 22.6223 26.235 21.9604 26.5059C21.3094 26.7767 20.6042 26.9176 19.8446 26.9176C18.7379 26.9176 17.5552 26.6576 16.3075 26.1267C15.0597 25.5958 13.8119 24.8808 12.575 23.9816C11.3272 23.0715 10.1445 22.064 9.01613 20.9481C7.89855 19.8214 6.88948 18.6405 5.98891 17.4054C5.0992 16.1703 4.38308 14.9352 3.86227 13.711C3.34146 12.4759 3.08105 11.295 3.08105 10.1683C3.08105 9.4316 3.21126 8.72739 3.47166 8.07735C3.73207 7.41648 4.14438 6.80978 4.71944 6.26809C5.41385 5.58555 6.17337 5.24969 6.97628 5.24969C7.28009 5.24969 7.5839 5.3147 7.85515 5.44471C8.13726 5.57471 8.38681 5.76972 8.58212 6.05141L11.0994 9.59411C11.2947 9.86496 11.4357 10.1141 11.5334 10.3525C11.631 10.58 11.6853 10.8075 11.6853 11.0134C11.6853 11.2734 11.6093 11.5334 11.4574 11.7826C11.3164 12.0317 11.1102 12.2918 10.8498 12.5518L10.0252 13.4077C9.90584 13.5268 9.85159 13.6677 9.85159 13.841C9.85159 13.9277 9.86244 14.0035 9.88414 14.0902C9.91669 14.1769 9.94924 14.2419 9.97095 14.3069C10.1662 14.6644 10.5026 15.1303 10.98 15.6936C11.4683 16.257 11.9891 16.8312 12.5533 17.4054C13.1392 17.9796 13.7034 18.5104 14.2785 18.998C14.8427 19.4747 15.3093 19.7997 15.6782 19.9947C15.7324 20.0164 15.7975 20.0489 15.8735 20.0814C15.9603 20.1139 16.0471 20.1247 16.1447 20.1247C16.3292 20.1247 16.4702 20.0597 16.5896 19.9405L17.4142 19.128C17.6855 18.8571 17.9459 18.6513 18.1954 18.5213C18.445 18.3696 18.6945 18.2938 18.9658 18.2938C19.1719 18.2938 19.3889 18.3371 19.6276 18.4346C19.8663 18.5321 20.1159 18.673 20.3872 18.8571L23.9786 21.4031C24.2607 21.5981 24.456 21.8256 24.5753 22.0965C24.6838 22.3673 24.7489 22.6382 24.7489 22.9415Z" stroke="#212F54" stroke-width="1.5" stroke-miterlimit="10"/>
<path d="M20.4142 12.8334C20.4142 12.0905 19.9778 10.9514 19.3278 10.0228C18.7334 9.16843 17.9441 8.49982 17.1641 8.49982" stroke="#212F54" stroke-width="1.5" stroke-linecap="round" stroke-linejoin="round"/>
<path d="M24.7478 12.8335C24.7478 8.64072 21.3568 5.24969 17.1641 5.24969" stroke="#212F54" stroke-width="1.5" stroke-linecap="round" stroke-linejoin="round"/>
</svg>
