<svg width="39" height="26" viewBox="0 0 39 26" fill="none" xmlns="http://www.w3.org/2000/svg">
<path fill-rule="evenodd" clip-rule="evenodd" d="M27.2386 1.21472L37.8452 11.8213C38.4961 12.4722 38.4961 13.5275 37.8452 14.1783L27.2386 24.7849C26.5877 25.4358 25.5324 25.4358 24.8816 24.7849C24.2307 24.1341 24.2307 23.0788 24.8816 22.4279L32.643 14.6665L1.66667 14.6665C0.746191 14.6665 -1.15343e-06 13.9203 -1.07296e-06 12.9998C-9.92493e-07 12.0794 0.746191 11.3332 1.66667 11.3332L32.643 11.3332L24.8816 3.57174C24.2307 2.92087 24.2307 1.86559 24.8816 1.21472C25.5324 0.563846 26.5877 0.563846 27.2386 1.21472Z" fill="white"/>
</svg>
