<svg width="30" height="30" viewBox="0 0 30 30" fill="none" xmlns="http://www.w3.org/2000/svg">
<g clip-path="url(#clip0_120_12958)">
<rect x="30" width="30" height="30" rx="15" transform="rotate(90 30 0)" fill="white"/>
<path fill-rule="evenodd" clip-rule="evenodd" d="M22.6818 16.4749L15.7682 23.6689C15.3439 24.1104 14.6561 24.1104 14.2318 23.6689L7.31819 16.4749C6.89394 16.0334 6.89394 15.3176 7.31819 14.8762C7.74245 14.4347 8.4303 14.4347 8.85455 14.8762L13.9136 20.1405L13.9136 -0.869566C13.9136 -1.49389 14.4 -2 15 -2C15.6 -2 16.0864 -1.49389 16.0864 -0.869566L16.0864 20.1405L21.1454 14.8762C21.5697 14.4347 22.2576 14.4347 22.6818 14.8762C23.1061 15.3176 23.1061 16.0334 22.6818 16.4749Z" fill="#D2610F"/>
</g>
<rect x="29" y="1" width="28" height="28" rx="14" transform="rotate(90 29 1)" stroke="#D2610F" stroke-width="2"/>
<defs>
<clipPath id="clip0_120_12958">
<rect x="30" width="30" height="30" rx="15" transform="rotate(90 30 0)" fill="white"/>
</clipPath>
</defs>
</svg>
