<svg width="30" height="30" viewBox="0 0 30 30" fill="none" xmlns="http://www.w3.org/2000/svg">
<g clip-path="url(#clip0_120_12865)">
<rect width="30" height="30" rx="15" fill="white"/>
<path fill-rule="evenodd" clip-rule="evenodd" d="M16.4749 7.31819L23.6689 14.2318C24.1104 14.6561 24.1104 15.3439 23.6689 15.7682L16.4749 22.6818C16.0334 23.1061 15.3176 23.1061 14.8762 22.6818C14.4347 22.2576 14.4347 21.5697 14.8762 21.1454L20.1405 16.0864L-0.869566 16.0864C-1.49389 16.0864 -2 15.6 -2 15C-2 14.4 -1.49389 13.9136 -0.869566 13.9136L20.1405 13.9136L14.8762 8.85455C14.4347 8.4303 14.4347 7.74245 14.8762 7.31819C15.3176 6.89394 16.0334 6.89394 16.4749 7.31819Z" fill="#E67523"/>
</g>
<defs>
<clipPath id="clip0_120_12865">
<rect width="30" height="30" rx="15" fill="white"/>
</clipPath>
</defs>
</svg>
