<svg width="600" height="400" viewBox="0 0 600 400" fill="none" xmlns="http://www.w3.org/2000/svg">
<g clip-path="url(#clip0_98_18706)">
<g opacity="0.1">
<circle cx="292.931" cy="91.5012" r="78.488" stroke="#F5F2EF"/>
<circle cx="292.932" cy="91.5006" r="279.452" stroke="#F5F2EF"/>
<circle cx="292.933" cy="91.5009" r="26.7377" stroke="#F5F2EF"/>
<circle cx="292.933" cy="91.5007" r="49.1628" stroke="#F5F2EF"/>
<path d="M547.787 99.695C548.01 94.1055 545.831 91.4385 543.549 90.8502M543.549 90.8502C543.087 90.7311 542.565 90.6682 541.98 90.6427L480.043 85.9393M543.549 90.8502L480.043 95.6157M480.043 85.9393L445.481 83.3148C443.912 83.197 442.577 84.4957 442.577 86.1398L442.577 95.3842C442.577 97.0283 443.912 98.327 445.481 98.2092L480.043 95.6157M480.043 85.9393L480.043 95.6157" stroke="#F5F2EF" stroke-linecap="round"/>
<path d="M467.221 277.81C471.332 274.016 471.676 270.589 470.479 268.559M470.479 268.559C470.236 268.148 469.912 267.735 469.517 267.303L429.046 220.181M470.479 268.559L422.204 227.024M429.046 220.181L406.463 193.887C405.437 192.694 403.574 192.668 402.412 193.83L395.875 200.367C394.712 201.53 394.738 203.392 395.931 204.419L422.204 227.024M429.046 220.181L422.204 227.024" stroke="#F5F2EF" stroke-linecap="round"/>
<path d="M284.307 346.787C289.896 347.011 292.563 344.831 293.152 342.549M293.152 342.549C293.271 342.087 293.334 341.566 293.359 340.981L298.062 279.044M293.152 342.549L288.386 279.044M298.062 279.044L300.687 244.482C300.805 242.913 299.506 241.578 297.862 241.578H288.618C286.973 241.578 285.675 242.913 285.793 244.482L288.386 279.044M298.062 279.044H288.386" stroke="#F5F2EF" stroke-linecap="round"/>
<path d="M106.192 266.222C109.986 270.332 113.413 270.677 115.443 269.479M115.443 269.479C115.854 269.237 116.267 268.913 116.698 268.517L163.82 228.047M115.443 269.479L156.978 221.205M163.82 228.047L190.115 205.464C191.308 204.437 191.334 202.575 190.171 201.412L183.635 194.875C182.472 193.713 180.61 193.739 179.583 194.932L156.978 221.205M163.82 228.047L156.978 221.205" stroke="#F5F2EF" stroke-linecap="round"/>
<path d="M37.2152 83.307C36.9918 88.8965 39.1712 91.5635 41.4532 92.1518M41.4532 92.1518C41.9151 92.2708 42.4367 92.3338 43.0214 92.3593L104.959 97.0626M41.4532 92.1518L104.959 87.3863M104.959 97.0626L139.521 99.6872C141.09 99.8049 142.425 98.5063 142.425 96.8621L142.425 87.6178C142.425 85.9737 141.09 84.675 139.521 84.7928L104.959 87.3863M104.959 97.0626L104.959 87.3863" stroke="#F5F2EF" stroke-linecap="round"/>
<path d="M521.025 -22.5785C518.566 -27.603 515.381 -28.9142 513.094 -28.3477M513.094 -28.3477C512.631 -28.233 512.142 -28.0406 511.615 -27.7852L454.88 -2.49673M513.094 -28.3477L459.478 6.01771M454.88 -2.49673L423.221 11.6147C421.785 12.2566 421.227 14.0337 422.008 15.4804L426.4 23.6148C427.181 25.0615 428.973 25.5698 430.298 24.7206L459.478 6.01771M454.88 -2.49673L459.478 6.01771" stroke="#F5F2EF" stroke-linecap="round"/>
<path d="M534.758 172.427C536.572 167.135 535.247 163.956 533.229 162.739M533.229 162.739C532.821 162.493 532.339 162.283 531.786 162.091L473.787 139.855M533.229 162.739L471.017 149.127M473.787 139.855L441.422 127.448C439.952 126.885 438.301 127.748 437.831 129.323L435.184 138.18C434.714 139.756 435.621 141.382 437.159 141.719L471.017 149.127M473.787 139.855L471.017 149.127" stroke="#F5F2EF" stroke-linecap="round"/>
<path d="M406.579 320.026C411.604 317.567 412.915 314.382 412.348 312.095M412.348 312.095C412.234 311.632 412.041 311.143 411.786 310.616L386.498 253.882M412.348 312.095L377.983 258.479M386.498 253.882L372.386 222.223C371.744 220.786 369.967 220.228 368.52 221.009L360.386 225.401C358.939 226.183 358.431 227.974 359.28 229.299L377.983 258.479M386.498 253.882L377.983 258.479" stroke="#F5F2EF" stroke-linecap="round"/>
<path d="M211.573 333.76C216.865 335.574 220.044 334.249 221.261 332.231M221.261 332.231C221.507 331.822 221.717 331.341 221.909 330.788L244.145 272.788M221.261 332.231L234.873 270.019M244.145 272.788L256.552 240.424C257.115 238.954 256.252 237.303 254.677 236.832L245.82 234.186C244.244 233.716 242.618 234.623 242.281 236.161L234.873 270.019M244.145 272.788L234.873 270.019" stroke="#F5F2EF" stroke-linecap="round"/>
<path d="M63.975 205.58C66.4341 210.604 69.619 211.916 71.9065 211.349M71.9065 211.349C72.3695 211.234 72.8584 211.042 73.385 210.787L130.12 185.498M71.9065 211.349L125.522 176.984M130.12 185.498L161.779 171.387C163.215 170.745 163.773 168.968 162.992 167.521L158.6 159.387C157.819 157.94 156.027 157.432 154.702 158.281L125.522 176.984M130.12 185.498L125.522 176.984" stroke="#F5F2EF" stroke-linecap="round"/>
<path d="M50.2412 10.5749C48.4272 15.8666 49.752 19.0458 51.7701 20.2627M51.7701 20.2627C52.1786 20.509 52.6604 20.7186 53.2133 20.9104L111.212 43.1462M51.7701 20.2627L113.982 33.8748M111.212 43.1462L143.577 55.5542C145.047 56.1163 146.698 55.2541 147.169 53.6788L149.815 44.8213C150.285 43.2459 149.378 41.6194 147.84 41.283L113.982 33.8748M111.212 43.1462L113.982 33.8748" stroke="#F5F2EF" stroke-linecap="round"/>
<path d="M503.762 -52.0489C500.654 -56.7004 497.323 -57.5749 495.131 -56.7083M495.131 -56.7083C494.688 -56.5328 494.229 -56.2769 493.741 -55.9535L440.888 -23.3214M495.131 -56.7083L446.58 -15.4965M440.888 -23.3214L411.395 -5.1122C410.056 -4.28426 409.74 -2.44863 410.708 -1.11907L416.146 6.35653C417.113 7.68608 418.957 7.95081 420.156 6.93241L446.58 -15.4965M440.888 -23.3214L446.58 -15.4965" stroke="#F5F2EF" stroke-linecap="round"/>
<path d="M543.389 139.38C544.481 133.894 542.744 130.92 540.582 129.983M540.582 129.983C540.144 129.793 539.638 129.65 539.065 129.534L478.617 115.235M540.582 129.983L477.109 124.793M478.617 115.235L444.887 107.256C443.355 106.895 441.834 107.97 441.578 109.594L440.137 118.725C439.881 120.349 440.997 121.84 442.566 121.969L477.109 124.793M478.617 115.235L477.109 124.793" stroke="#F5F2EF" stroke-linecap="round"/>
<path d="M436.051 302.763C440.703 299.655 441.577 296.324 440.71 294.132M440.71 294.132C440.535 293.689 440.279 293.23 439.956 292.742L407.324 239.889M440.71 294.132L399.499 245.581M407.324 239.889L389.114 210.396C388.286 209.057 386.451 208.742 385.121 209.709L377.646 215.147C376.316 216.114 376.051 217.958 377.07 219.158L399.499 245.581M407.324 239.889L399.499 245.581" stroke="#F5F2EF" stroke-linecap="round"/>
<path d="M244.622 342.391C250.108 343.483 253.082 341.746 254.019 339.584M254.019 339.584C254.209 339.146 254.352 338.64 254.468 338.067L268.767 277.619M254.019 339.584L259.209 276.111M268.767 277.619L276.746 243.889C277.107 242.357 276.032 240.836 274.408 240.58L265.277 239.139C263.653 238.883 262.162 239.999 262.033 241.568L259.209 276.111M268.767 277.619L259.209 276.111" stroke="#F5F2EF" stroke-linecap="round"/>
<path d="M81.2395 235.051C84.3469 239.703 87.6783 240.577 89.8697 239.71M89.8697 239.71C90.3133 239.535 90.7721 239.279 91.26 238.956L144.113 206.324M89.8697 239.71L138.421 198.499M144.113 206.324L173.606 188.114C174.945 187.286 175.26 185.451 174.293 184.121L168.855 176.646C167.888 175.316 166.044 175.051 164.845 176.07L138.421 198.499M144.113 206.324L138.421 198.499" stroke="#F5F2EF" stroke-linecap="round"/>
<path d="M41.6106 43.6227C40.5188 49.1091 42.256 52.0832 44.4185 53.0199M44.4185 53.0199C44.8561 53.2095 45.3616 53.353 45.9352 53.4693L106.383 67.7679M44.4185 53.0199L107.891 58.2098M106.383 67.7679L140.113 75.7468C141.645 76.1077 143.166 75.033 143.422 73.4089L144.863 64.2775C145.119 62.6535 144.003 61.1626 142.434 61.0344L107.891 58.2098M106.383 67.7679L107.891 58.2098" stroke="#F5F2EF" stroke-linecap="round"/>
<path d="M545.178 54.1888C544.404 48.6486 541.785 46.4115 539.435 46.2381M539.435 46.2381C538.959 46.203 538.435 46.2338 537.855 46.3126L476.068 52.6923M539.435 46.2381L477.788 62.2146M476.068 52.6923L441.59 56.2523C440.025 56.4153 438.941 57.9306 439.234 59.5486L440.877 68.6458C441.169 70.2637 442.714 71.3044 444.237 70.9096L477.788 62.2146M476.068 52.6923L477.788 62.2146" stroke="#F5F2EF" stroke-linecap="round"/>
<path d="M497.552 243.786C500.922 239.322 500.652 235.888 499.113 234.104M499.113 234.104C498.802 233.742 498.409 233.393 497.943 233.039L449.742 193.86M499.113 234.104L444.225 201.81M449.742 193.86L422.845 171.998C421.623 171.006 419.786 171.312 418.848 172.663L413.577 180.257C412.64 181.608 412.996 183.436 414.353 184.234L444.225 201.81M449.742 193.86L444.225 201.81" stroke="#F5F2EF" stroke-linecap="round"/>
<path d="M329.809 344.176C335.349 343.402 337.587 340.783 337.76 338.433M337.76 338.433C337.795 337.958 337.764 337.433 337.685 336.853L331.306 275.066M337.76 338.433L321.783 276.786M331.306 275.066L327.746 240.588C327.583 239.023 326.067 237.94 324.449 238.232L315.352 239.875C313.734 240.167 312.694 241.712 313.088 243.235L321.783 276.786M331.306 275.066L321.783 276.786" stroke="#F5F2EF" stroke-linecap="round"/>
<path d="M140.211 296.55C144.676 299.92 148.11 299.651 149.894 298.111M149.894 298.111C150.255 297.8 150.604 297.407 150.959 296.941L190.138 248.74M149.894 298.111L182.188 243.223M190.138 248.74L212 221.843C212.992 220.621 212.686 218.784 211.335 217.846L203.741 212.575C202.39 211.638 200.562 211.994 199.764 213.351L182.188 243.223M190.138 248.74L182.188 243.223" stroke="#F5F2EF" stroke-linecap="round"/>
<path d="M39.822 128.807C40.5956 134.347 43.2143 136.584 45.5646 136.758M45.5646 136.758C46.0403 136.793 46.5647 136.762 47.1447 136.683L108.932 130.304M45.5646 136.758L107.212 120.781M108.932 130.304L143.41 126.744C144.975 126.581 146.058 125.065 145.766 123.447L144.123 114.35C143.831 112.732 142.286 111.691 140.763 112.086L107.212 120.781M108.932 130.304L107.212 120.781" stroke="#F5F2EF" stroke-linecap="round"/>
<path d="M87.4477 -60.7902C84.0772 -56.3257 84.347 -52.892 85.8863 -51.1076M85.8863 -51.1076C86.1979 -50.7464 86.5905 -50.3973 87.0563 -50.0429L135.257 -10.8641M85.8863 -51.1076L140.775 -18.8134M135.257 -10.8641L162.154 10.9983C163.377 11.9899 165.214 11.6843 166.151 10.3336L171.422 2.73914C172.36 1.38844 172.003 -0.439732 170.647 -1.23777L140.775 -18.8134M135.257 -10.8641L140.775 -18.8134" stroke="#F5F2EF" stroke-linecap="round"/>
<path d="M536.011 14.4311C534.365 9.08475 531.423 7.29318 529.075 7.4963M529.075 7.4963C528.6 7.53741 528.087 7.65132 527.527 7.82148L467.545 23.959M529.075 7.4963L470.759 33.0859M467.545 23.959L434.073 32.964C432.554 33.3742 431.726 35.0427 432.272 36.5934L435.343 45.3129C435.889 46.8637 437.58 47.6451 439.021 47.0127L470.759 33.0859M467.545 23.959L470.759 33.0859" stroke="#F5F2EF" stroke-linecap="round"/>
<path d="M519.186 209.194C521.802 204.25 520.989 200.903 519.185 199.386M519.185 199.386C518.82 199.079 518.377 198.797 517.86 198.522L464.035 167.518M519.185 199.386L459.855 176.245M464.035 167.518L434 150.218C432.636 149.434 430.871 150.028 430.16 151.511L426.166 159.848C425.455 161.331 426.098 163.079 427.565 163.65L459.855 176.245M464.035 167.518L459.855 176.245" stroke="#F5F2EF" stroke-linecap="round"/>
<path d="M369.57 335.014C374.916 333.368 376.708 330.426 376.505 328.079M376.505 328.079C376.464 327.603 376.35 327.091 376.18 326.531L360.042 266.548M376.505 328.079L350.915 269.762M360.042 266.548L351.037 233.077C350.627 231.557 348.958 230.729 347.408 231.275L338.688 234.346C337.137 234.892 336.356 236.583 336.988 238.024L350.915 269.762M360.042 266.548L350.915 269.762" stroke="#F5F2EF" stroke-linecap="round"/>
<path d="M174.808 318.188C179.753 320.804 183.099 319.991 184.616 318.187M184.616 318.187C184.923 317.822 185.205 317.379 185.481 316.863L216.484 263.038M184.616 318.187L207.757 258.857M216.484 263.038L233.784 233.002C234.568 231.638 233.974 229.873 232.491 229.162L224.154 225.168C222.672 224.458 220.924 225.101 220.352 226.567L207.757 258.857M216.484 263.038L207.757 258.857" stroke="#F5F2EF" stroke-linecap="round"/>
<path d="M48.9877 168.573C50.6337 173.919 53.5752 175.711 55.9231 175.508M55.9231 175.508C56.3983 175.466 56.9112 175.353 57.4712 175.182L117.454 159.045M55.9231 175.508L114.24 149.918M117.454 159.045L150.925 150.04C152.444 149.63 153.272 147.961 152.726 146.41L149.656 137.691C149.109 136.14 147.419 135.359 145.978 135.991L114.24 149.918M117.454 159.045L114.24 149.918" stroke="#F5F2EF" stroke-linecap="round"/>
<path d="M65.8139 -26.1901C63.1974 -21.2458 64.0106 -17.8989 65.8144 -16.3824M65.8144 -16.3824C66.1795 -16.0754 66.6227 -15.7933 67.139 -15.5176L120.964 15.4855M65.8144 -16.3824L125.145 6.75904M120.964 15.4855L150.999 32.7858C152.364 33.57 154.129 32.9758 154.839 31.493L158.834 23.1561C159.544 21.6734 158.901 19.9253 157.435 19.3534L125.145 6.75904M120.964 15.4855L125.145 6.75904" stroke="#F5F2EF" stroke-linecap="round"/>
<path d="M296.383 55.2705L298.004 58.0268L299.58 60.8086L298.004 63.5903L296.383 66.3466L293.186 66.372L289.988 66.3466L288.368 63.5903L286.791 60.8086L288.368 58.0268L289.988 55.2705L293.186 55.2451L296.383 55.2705Z" stroke="#F5F2EF"/>
<path d="M296.383 116.708L298.004 119.465L299.58 122.246L298.004 125.028L296.383 127.784L293.186 127.81L289.988 127.784L288.368 125.028L286.791 122.246L288.368 119.465L289.988 116.708L293.186 116.683L296.383 116.708Z" stroke="#F5F2EF"/>
<path d="M321.084 68.1509L320.281 71.2459L319.429 74.3277L316.347 75.1798L313.252 75.9828L310.973 73.7399L308.73 71.4611L309.533 68.366L310.385 65.2842L313.467 64.4321L316.562 63.6291L318.841 65.872L321.084 68.1509Z" stroke="#F5F2EF"/>
<path d="M277.641 111.594L276.838 114.689L275.986 117.771L272.904 118.623L269.809 119.426L267.53 117.183L265.287 114.904L266.09 111.809L266.942 108.727L270.024 107.875L273.119 107.072L275.398 109.315L277.641 111.594Z" stroke="#F5F2EF"/>
<path d="M329.442 94.7248L326.686 96.3455L323.904 97.9222L321.123 96.3455L318.366 94.7248L318.341 91.5274L318.366 88.33L321.123 86.7093L323.904 85.1326L326.686 86.7093L329.442 88.33L329.468 91.5274L329.442 94.7248Z" stroke="#F5F2EF"/>
<path d="M268.005 94.7248L265.248 96.3455L262.467 97.9222L259.685 96.3455L256.929 94.7248L256.903 91.5274L256.929 88.33L259.685 86.7093L262.467 85.1326L265.248 86.7093L268.005 88.33L268.03 91.5274L268.005 94.7248Z" stroke="#F5F2EF"/>
<path d="M316.562 119.426L313.467 118.623L310.385 117.771L309.533 114.689L308.73 111.594L310.973 109.315L313.252 107.072L316.347 107.875L319.429 108.727L320.281 111.809L321.084 114.904L318.841 117.183L316.562 119.426Z" stroke="#F5F2EF"/>
<path d="M273.119 75.9828L270.024 75.1798L266.942 74.3277L266.09 71.2458L265.287 68.1508L267.53 65.872L269.809 63.629L272.904 64.432L275.986 65.2841L276.838 68.366L277.641 71.461L275.398 73.7399L273.119 75.9828Z" stroke="#F5F2EF"/>
</g>
</g>
<defs>
<clipPath id="clip0_98_18706">
<rect width="600" height="400" fill="white"/>
</clipPath>
</defs>
</svg>
