<svg width="80" height="80" viewBox="0 0 80 80" fill="none" xmlns="http://www.w3.org/2000/svg">
<path d="M40 80C62.0914 80 80 62.0914 80 40C80 17.9086 62.0914 0 40 0C18.5917 0 1.11155 16.8182 0.0509662 37.9631C0.017124 38.6378 0 39.3169 0 40C0 40.6582 0.0158969 41.3127 0.0473277 41.9631L0.0498185 41.9883H3.5H5H11.087L53.8747 41.9883L44.156 51.7903C43.341 52.6123 43.341 53.945 44.156 54.767C44.971 55.589 46.2924 55.589 47.1074 54.767L60.3887 41.3719C61.2038 40.5499 61.2038 39.2171 60.3887 38.3952L47.1074 25C46.2924 24.178 44.971 24.178 44.156 25C43.341 25.822 43.341 27.1547 44.156 27.9767L53.8747 37.7787L11.087 37.7787H4.06741C5.21475 18.931 20.8637 4 40 4C58.903 4 74.4032 18.5692 75.8842 37.0912C75.9609 38.0507 76 39.0208 76 40C76 40.9792 75.9609 41.9494 75.8842 42.9089C74.4032 61.4308 58.903 76 40 76C22.8673 76 8.5299 64.0319 4.89207 48H0.800145C4.50631 66.2579 20.6483 80 40 80Z" fill="#E67523"/>
</svg>
