<svg width="57" height="69" viewBox="0 0 57 69" fill="none" xmlns="http://www.w3.org/2000/svg">
<path fill-rule="evenodd" clip-rule="evenodd" d="M8.31876 48.4853C-2.77292 37.3936 -2.77292 19.4104 8.31876 8.31876C19.4104 -2.77292 37.3936 -2.77292 48.4853 8.31876C59.577 19.4104 59.577 37.3936 48.4853 48.4853L28.402 68.5685L8.31876 48.4853ZM9.32292 9.32292C-1.21417 19.86 -1.21417 36.944 9.32292 47.4811L28.402 66.5602L47.4811 47.4811C58.0182 36.944 58.0182 19.86 47.4811 9.32292C36.944 -1.21417 19.86 -1.21417 9.32292 9.32292Z" fill="white"/>
<path d="M9.32225 9.3247C-1.21484 19.8618 -1.21484 36.9458 9.32225 47.4829L28.4014 66.562L47.4804 47.4829C58.0175 36.9458 58.0175 19.8618 47.4804 9.3247C36.9433 -1.2124 19.8593 -1.2124 9.32225 9.3247Z" fill="#E67523"/>
<path fill-rule="evenodd" clip-rule="evenodd" d="M30.9077 21.6362V23.1398V29.8254L39.2822 21.4509H41.4087L34.9482 27.9114L38.2542 32.006L41.5601 36.1006L42.7544 37.5936C39.7245 42.3152 34.4284 45.4438 28.4017 45.4438C18.9901 45.4438 11.3605 37.8141 11.3605 28.4025C11.3605 27.0214 11.5248 25.6787 11.8349 24.3928H13.6923C13.3448 25.6705 13.1594 27.0149 13.1594 28.4025C13.1594 36.8206 19.9836 43.6449 28.4017 43.6449C33.4459 43.6449 37.9179 41.1946 40.6922 37.4193L33.879 28.9806L30.9077 31.9519V35.6701H29.4041V23.1398H25.1438V35.6701H23.6402V23.1398H21.6353L21.6353 35.6701H20.1317L20.1317 23.1398H14.0923H13.1147H12.1886C14.406 16.3038 20.8267 11.3613 28.4017 11.3613C37.8133 11.3613 45.4429 18.9909 45.4429 28.4025C45.4429 31.2246 44.7569 33.8864 43.5426 36.2304L42.301 34.6677C43.1638 32.7566 43.644 30.6356 43.644 28.4025C43.644 19.9844 36.8198 13.1602 28.4017 13.1602C22.4138 13.1602 17.2324 16.613 14.7398 21.6362H20.1317H21.6353H23.6402H25.1438H29.4041H30.9077Z" fill="white"/>
</svg>
